FontAwesome.ufo
<glyph name="A" format="1">
  <advance width="1384"/>
  <unicode hex="0041"/>
  <outline>
    <contour>
      <point x="692" y="1030" type="curve"/>
      <point x="701" y="993"/>
      <point x="712" y="951"/>
      <point x="724" y="917" type="curve"/>
      <point x="831" y="607" type="line"/>
      <point x="553" y="607" type="line"/>
      <point x="660" y="917" type="line"/>
      <point x="671" y="951"/>
      <point x="682" y="993"/>
    </contour>
    <contour>
      <point x="842" y="1416" type="line"/>
      <point x="543" y="1416" type="line"/>
      <point x="538" y="1399" type="line"/>
      <point x="30" y="0" type="line"/>
      <point x="216" y="0" type="line"/>
      <point x="267" y="0"/>
      <point x="304" y="6"/>
      <point x="335" y="28" type="curve" smooth="yes"/>
      <point x="367" y="49"/>
      <point x="383" y="83"/>
      <point x="400" y="128" type="curve"/>
      <point x="477" y="350" type="line"/>
      <point x="904" y="350" type="line"/>
      <point x="983" y="128" type="line"/>
      <point x="1000" y="83"/>
      <point x="1019" y="49"/>
      <point x="1049" y="28" type="curve" smooth="yes"/>
      <point x="1081" y="6"/>
      <point x="1119" y="0"/>
      <point x="1169" y="0" type="curve"/>
      <point x="1354" y="0" type="line"/>
    </contour>
  </outline>
</glyph>
<glyph name="H" format="1">
  <advance width="1117"/>
  <unicode hex="0048"/>
  <outline>
    <contour>
      <point x="1062" y="1416" type="line"/>
      <point x="940" y="1416" type="line"/>
      <point x="893" y="1416"/>
      <point x="852" y="1404"/>
      <point x="823" y="1376" type="curve" smooth="yes"/>
      <point x="795" y="1348"/>
      <point x="786" y="1308"/>
      <point x="786" y="1260" type="curve"/>
      <point x="786" y="837" type="line"/>
      <point x="331" y="837" type="line"/>
      <point x="331" y="1260" type="line"/>
      <point x="331" y="1308"/>
      <point x="321" y="1348"/>
      <point x="293" y="1376" type="curve" smooth="yes"/>
      <point x="265" y="1404"/>
      <point x="226" y="1416"/>
      <point x="177" y="1416" type="curve"/>
      <point x="30" y="1416" type="line"/>
      <point x="30" y="1136" type="line"/>
      <point x="30" y="874" type="line"/>
      <point x="30" y="0" type="line"/>
      <point x="331" y="0" type="line"/>
      <point x="331" y="573" type="line"/>
      <point x="786" y="573" type="line"/>
      <point x="786" y="0" type="line"/>
      <point x="1087" y="0" type="line"/>
      <point x="1087" y="857" type="line"/>
      <point x="1087" y="1136" type="line"/>
      <point x="1087" y="1416" type="line"/>
    </contour>
  </outline>
</glyph>
<glyph name="K" format="1">
  <advance width="1192"/>
  <unicode hex="004B"/>
  <outline>
    <contour>
      <point x="1009" y="293" type="curve"/>
      <point x="987" y="282" type="line"/>
      <point x="1008" y="293" type="line"/>
      <point x="835" y="641" type="line"/>
      <point x="812" y="688"/>
      <point x="788" y="714"/>
      <point x="767" y="729" type="curve"/>
      <point x="786" y="746"/>
      <point x="810" y="775"/>
      <point x="833" y="818" type="curve"/>
      <point x="1162" y="1416" type="line"/>
      <point x="827" y="1416" type="line"/>
      <point x="545" y="891" type="line"/>
      <point x="536" y="876"/>
      <point x="528" y="870"/>
      <point x="515" y="865" type="curve" smooth="yes"/>
      <point x="502" y="861"/>
      <point x="481" y="859"/>
      <point x="457" y="859" type="curve"/>
      <point x="336" y="859" type="line"/>
      <point x="336" y="1260" type="line"/>
      <point x="336" y="1308"/>
      <point x="327" y="1348"/>
      <point x="299" y="1376" type="curve" smooth="yes"/>
      <point x="271" y="1404"/>
      <point x="229" y="1416"/>
      <point x="180" y="1416" type="curve"/>
      <point x="30" y="1416" type="line"/>
      <point x="30" y="1136" type="line"/>
      <point x="30" y="916" type="line"/>
      <point x="30" y="0" type="line"/>
      <point x="336" y="0" type="line"/>
      <point x="336" y="596" type="line"/>
      <point x="442" y="596" type="line"/>
      <point x="468" y="596"/>
      <point x="491" y="596"/>
      <point x="506" y="590" type="curve" smooth="yes"/>
      <point x="521" y="587"/>
      <point x="530" y="581"/>
      <point x="539" y="564" type="curve"/>
      <point x="761" y="117" type="line"/>
      <point x="786" y="70"/>
      <point x="812" y="38"/>
      <point x="848" y="21" type="curve" smooth="yes"/>
      <point x="884" y="4"/>
      <point x="923" y="0"/>
      <point x="976" y="0" type="curve"/>
      <point x="1160" y="0" type="line"/>
      <point x="1141" y="36" type="line"/>
      <point x="1141" y="36"/>
      <point x="1028" y="254"/>
    </contour>
  </outline>
</glyph>
<glyph name="N" format="1">
  <advance width="1160"/>
  <unicode hex="004E"/>
  <outline>
    <contour>
      <point x="1105" y="1416" type="line"/>
      <point x="985" y="1416" type="line"/>
      <point x="934" y="1416"/>
      <point x="895" y="1404"/>
      <point x="867" y="1376" type="curve" smooth="yes"/>
      <point x="838" y="1348"/>
      <point x="829" y="1308"/>
      <point x="829" y="1260" type="curve"/>
      <point x="829" y="635" type="line"/>
      <point x="829" y="613"/>
      <point x="829" y="590"/>
      <point x="831" y="568" type="curve"/>
      <point x="812" y="603"/>
      <point x="791" y="643"/>
      <point x="771" y="673" type="curve"/>
      <point x="320" y="1416" type="line"/>
      <point x="30" y="1416" type="line"/>
      <point x="30" y="419" type="line"/>
      <point x="30" y="280" type="line"/>
      <point x="30" y="0" type="line"/>
      <point x="175" y="0" type="line"/>
      <point x="177" y="0"/>
      <point x="177" y="0"/>
      <point x="177" y="0" type="curve" smooth="yes"/>
      <point x="226" y="0"/>
      <point x="265" y="9"/>
      <point x="293" y="38" type="curve" smooth="yes"/>
      <point x="321" y="66"/>
      <point x="331" y="107"/>
      <point x="331" y="156" type="curve"/>
      <point x="331" y="778" type="line"/>
      <point x="331" y="799"/>
      <point x="331" y="822"/>
      <point x="329" y="844" type="curve"/>
      <point x="348" y="808"/>
      <point x="368" y="771"/>
      <point x="391" y="741" type="curve"/>
      <point x="842" y="0" type="line"/>
      <point x="1130" y="0" type="line"/>
      <point x="1130" y="916" type="line"/>
      <point x="1130" y="1136" type="line"/>
      <point x="1130" y="1416" type="line"/>
    </contour>
  </outline>
</glyph>
<glyph name="a" format="1">
  <advance width="1276"/>
  <unicode hex="0061"/>
  <outline>
    <contour>
      <point x="878" y="570" type="line" smooth="yes"/>
      <point x="694" y="1072" type="line"/>
      <point x="669" y="1137"/>
      <point x="639" y="1254"/>
      <point x="639" y="1254" type="curve" smooth="yes"/>
      <point x="635" y="1254" type="line"/>
      <point x="635" y="1254"/>
      <point x="605" y="1137"/>
      <point x="581" y="1072" type="curve" smooth="yes"/>
      <point x="397" y="570" type="line"/>
    </contour>
    <contour>
      <point x="562" y="1406" type="line"/>
      <point x="712" y="1406" type="line"/>
      <point x="1246" y="0" type="line"/>
      <point x="1205" y="0" type="line"/>
      <point x="1105" y="0"/>
      <point x="1077" y="21"/>
      <point x="1041" y="117" type="curve" smooth="yes"/>
      <point x="917" y="447" type="line"/>
      <point x="359" y="447" type="line"/>
      <point x="233" y="117" type="line"/>
      <point x="195" y="21"/>
      <point x="171" y="0"/>
      <point x="71" y="0" type="curve" smooth="yes"/>
      <point x="30" y="0" type="line"/>
    </contour>
  </outline>
</glyph>
<glyph name="c" format="1">
  <advance width="1152"/>
  <unicode hex="0063"/>
  <outline>
    <contour>
      <point x="1030" y="1069" type="curve" smooth="yes"/>
      <point x="975" y="1184"/>
      <point x="823" y="1318"/>
      <point x="597" y="1318" type="curve" smooth="yes"/>
      <point x="285" y="1318"/>
      <point x="47" y="1073"/>
      <point x="47" y="733" type="curve" smooth="yes"/>
      <point x="47" y="398"/>
      <point x="284" y="128"/>
      <point x="603" y="128" type="curve" smooth="yes"/>
      <point x="755" y="128"/>
      <point x="878" y="178"/>
      <point x="955" y="235" type="curve" smooth="yes"/>
      <point x="1047" y="302"/>
      <point x="1145" y="223"/>
      <point x="1145" y="223" type="curve"/>
      <point x="1145" y="223"/>
      <point x="949" y="-4"/>
      <point x="601" y="-4" type="curve" smooth="yes"/>
      <point x="190" y="-4"/>
      <point x="-100" y="323"/>
      <point x="-100" y="733" type="curve" smooth="yes"/>
      <point x="-100" y="1139"/>
      <point x="199" y="1449"/>
      <point x="594" y="1449" type="curve" smooth="yes"/>
      <point x="793" y="1449"/>
      <point x="1041" y="1361"/>
      <point x="1133" y="1148" type="curve"/>
      <point x="1177" y="1053"/>
      <point x="1182" y="1006"/>
      <point x="1182" y="1006" type="curve" smooth="yes"/>
      <point x="1182" y="1006"/>
      <point x="1066" y="992"/>
    </contour>
  </outline>
</glyph>
<glyph name="d" format="1">
  <advance width="1244"/>
  <unicode hex="0064"/>
  <outline>
    <contour>
      <point x="449" y="124" type="curve"/>
      <point x="214" y="124" type="line"/>
      <point x="186" y="124"/>
      <point x="169" y="137"/>
      <point x="169" y="167" type="curve"/>
      <point x="169" y="1282" type="line"/>
      <point x="449" y="1282" type="line"/>
      <point x="793" y="1282"/>
      <point x="1025" y="1077"/>
      <point x="1025" y="703" type="curve" smooth="yes"/>
      <point x="1025" y="327"/>
      <point x="795" y="124"/>
    </contour>
    <contour>
      <point x="464" y="1406" type="curve"/>
      <point x="30" y="1406" type="line"/>
      <point x="30" y="1282" type="line"/>
      <point x="30" y="1162" type="line"/>
      <point x="30" y="122" type="line"/>
      <point x="30" y="36"/>
      <point x="66" y="0"/>
      <point x="152" y="0" type="curve"/>
      <point x="464" y="0" type="line"/>
      <point x="887" y="0"/>
      <point x="1169" y="256"/>
      <point x="1169" y="703" type="curve" smooth="yes"/>
      <point x="1169" y="1147"/>
      <point x="887" y="1406"/>
    </contour>
  </outline>
</glyph>
<glyph name="e" format="1">
  <advance width="968"/>
  <unicode hex="0065"/>
  <outline>
    <contour>
      <point x="707" y="124" type="line"/>
      <point x="562" y="124" type="line"/>
      <point x="212" y="124" type="line"/>
      <point x="186" y="124"/>
      <point x="169" y="137"/>
      <point x="169" y="167" type="curve"/>
      <point x="169" y="645" type="line"/>
      <point x="697" y="645" type="line"/>
      <point x="697" y="769" type="line"/>
      <point x="169" y="769" type="line"/>
      <point x="169" y="1282" type="line"/>
      <point x="526" y="1282" type="line"/>
      <point x="649" y="1282" type="line"/>
      <point x="825" y="1282" type="line"/>
      <point x="825" y="1284" type="line"/>
      <point x="825" y="1369"/>
      <point x="790" y="1406"/>
      <point x="703" y="1406" type="curve"/>
      <point x="30" y="1406" type="line"/>
      <point x="30" y="1282" type="line"/>
      <point x="30" y="1120" type="line"/>
      <point x="30" y="122" type="line"/>
      <point x="30" y="36"/>
      <point x="66" y="0"/>
      <point x="150" y="0" type="curve"/>
      <point x="759" y="0" type="line"/>
      <point x="844" y="0"/>
      <point x="882" y="36"/>
      <point x="882" y="122" type="curve"/>
      <point x="882" y="124" type="line"/>
    </contour>
  </outline>
</glyph>
<glyph name="m" format="1">
  <advance width="1426"/>
  <unicode hex="006D"/>
  <outline>
    <contour>
      <point x="125" y="1406" type="line"/>
      <point x="266" y="1406" type="line"/>
      <point x="638" y="588" type="line"/>
      <point x="672" y="515"/>
      <point x="707" y="421"/>
      <point x="707" y="421" type="curve" smooth="yes"/>
      <point x="711" y="421" type="line"/>
      <point x="711" y="421"/>
      <point x="747" y="515"/>
      <point x="779" y="588" type="curve" smooth="yes"/>
      <point x="1151" y="1406" type="line"/>
      <point x="1294" y="1406" type="line"/>
      <point x="1416" y="0" type="line"/>
      <point x="1375" y="0" type="line"/>
      <point x="1290" y="0"/>
      <point x="1260" y="36"/>
      <point x="1253" y="122" type="curve" smooth="yes"/>
      <point x="1187" y="976" type="line"/>
      <point x="1181" y="1051"/>
      <point x="1181" y="1171"/>
      <point x="1181" y="1171" type="curve" smooth="yes"/>
      <point x="1177" y="1171" type="line"/>
      <point x="1177" y="1171"/>
      <point x="1140" y="1047"/>
      <point x="1106" y="976" type="curve" smooth="yes"/>
      <point x="771" y="261" type="line"/>
      <point x="645" y="261" type="line"/>
      <point x="315" y="976" type="line"/>
      <point x="283" y="1045"/>
      <point x="239" y="1175"/>
      <point x="239" y="1175" type="curve" smooth="yes"/>
      <point x="236" y="1175" type="line"/>
      <point x="236" y="1175"/>
      <point x="236" y="1051"/>
      <point x="230" y="976" type="curve" smooth="yes"/>
      <point x="164" y="122" type="line"/>
      <point x="159" y="36"/>
      <point x="128" y="0"/>
      <point x="42" y="0" type="curve" smooth="yes"/>
      <point x="10" y="0" type="line"/>
    </contour>
  </outline>
</glyph>
<glyph name="y" format="1">
  <advance width="1059"/>
  <unicode hex="0079"/>
  <outline>
    <contour>
      <point x="461" y="611" type="line" smooth="yes"/>
      <point x="-30" y="1406" type="line"/>
      <point x="11" y="1406" type="line"/>
      <point x="107" y="1406"/>
      <point x="143" y="1391"/>
      <point x="203" y="1293" type="curve" smooth="yes"/>
      <point x="442" y="895" type="line"/>
      <point x="485" y="822"/>
      <point x="528" y="737"/>
      <point x="528" y="737" type="curve" smooth="yes"/>
      <point x="532" y="737" type="line"/>
      <point x="532" y="737"/>
      <point x="573" y="822"/>
      <point x="619" y="895" type="curve" smooth="yes"/>
      <point x="855" y="1293" type="line"/>
      <point x="916" y="1391"/>
      <point x="951" y="1406"/>
      <point x="1047" y="1406" type="curve" smooth="yes"/>
      <point x="1089" y="1406" type="line"/>
      <point x="600" y="611" type="line"/>
      <point x="600" y="0" type="line"/>
      <point x="461" y="0" type="line"/>
    </contour>
  </outline>
</glyph>
<glyph name="bullet" format="1">
  <advance width="1466.74179177"/>
  <unicode hex="2022"/>
  <outline>
    <contour>
      <point x="161" y="97" type="curve" smooth="yes"/>
      <point x="161" y="97"/>
      <point x="-63" y="631"/>
      <point x="337" y="1032" type="curve" smooth="yes"/>
      <point x="702" y="1395"/>
      <point x="1253" y="1451"/>
      <point x="1347" y="1453" type="curve" smooth="yes"/>
      <point x="1347" y="1453"/>
      <point x="1496" y="968"/>
      <point x="1127" y="419" type="curve" smooth="yes"/>
      <point x="759" y="-132"/>
      <point x="247" y="18"/>
      <point x="247" y="18" type="curve" smooth="yes"/>
      <point x="247" y="18"/>
      <point x="753" y="661"/>
      <point x="691" y="658" type="curve" smooth="yes"/>
      <point x="650" y="656"/>
      <point x="384" y="362"/>
    </contour>
  </outline>
</glyph>
<glyph name="user" format="1">
  <advance width="1408"/>
  <unicode hex="F007"/>
  <outline>
    <contour>
      <point x="1408" y="131" type="curve" smooth="yes"/>
      <point x="1408" y="357"/>
      <point x="1355" y="704"/>
      <point x="1062" y="704" type="curve" smooth="yes"/>
      <point x="1031" y="704"/>
      <point x="900" y="565"/>
      <point x="704" y="565" type="curve" smooth="yes"/>
      <point x="508" y="565"/>
      <point x="377" y="704"/>
      <point x="346" y="704" type="curve" smooth="yes"/>
      <point x="53" y="704"/>
      <point x="0" y="357"/>
      <point x="0" y="131" type="curve" smooth="yes"/>
      <point x="0" y="-31"/>
      <point x="108" y="-128"/>
      <point x="267" y="-128" type="curve" smooth="yes"/>
      <point x="1141" y="-128" type="line" smooth="yes"/>
      <point x="1300" y="-128"/>
      <point x="1408" y="-31"/>
    </contour>
    <contour>
      <point x="1088" y="1024" type="curve" smooth="yes"/>
      <point x="1088" y="1236"/>
      <point x="916" y="1408"/>
      <point x="704" y="1408" type="curve" smooth="yes"/>
      <point x="492" y="1408"/>
      <point x="320" y="1236"/>
      <point x="320" y="1024" type="curve" smooth="yes"/>
      <point x="320" y="812"/>
      <point x="492" y="640"/>
      <point x="704" y="640" type="curve" smooth="yes"/>
      <point x="916" y="640"/>
      <point x="1088" y="812"/>
    </contour>
  </outline>
</glyph>
<glyph name="font" format="1">
  <advance width="1664"/>
  <unicode hex="F031"/>
  <outline>
    <contour>
      <point x="725" y="977" type="line"/>
      <point x="749" y="929"/>
      <point x="780" y="859"/>
      <point x="817" y="766" type="curve"/>
      <point x="855" y="674"/>
      <point x="886" y="594"/>
      <point x="909" y="525" type="curve"/>
      <point x="880" y="523" type="line"/>
      <point x="847" y="522"/>
      <point x="739" y="525"/>
      <point x="555" y="527" type="curve"/>
    </contour>
    <contour>
      <point x="21" y="-128" type="line" smooth="yes"/>
      <point x="74" y="-128"/>
      <point x="130" y="-124"/>
      <point x="188" y="-114" type="curve" smooth="yes"/>
      <point x="236" y="-106" type="line"/>
      <point x="420" y="-119"/>
      <point x="536" y="-126"/>
      <point x="585" y="-126" type="curve"/>
      <point x="587" y="-116"/>
      <point x="587" y="-107"/>
      <point x="587" y="-99" type="curve" smooth="yes"/>
      <point x="587" y="-88"/>
      <point x="587" y="-69"/>
      <point x="586" y="-41" type="curve"/>
      <point x="537" y="-34"/>
      <point x="510" y="-29"/>
      <point x="502" y="-28" type="curve" smooth="yes"/>
      <point x="451" y="-21"/>
      <point x="417" y="-11"/>
      <point x="399" y="4" type="curve" smooth="yes"/>
      <point x="388" y="12"/>
      <point x="382" y="27"/>
      <point x="382" y="47" type="curve" smooth="yes"/>
      <point x="382" y="62"/>
      <point x="390" y="89"/>
      <point x="405" y="131" type="curve" smooth="yes"/>
      <point x="457" y="276"/>
      <point x="492" y="367"/>
      <point x="509" y="405" type="curve"/>
      <point x="959" y="403" type="line"/>
      <point x="1051" y="175" type="line"/>
      <point x="1098" y="61" type="line" smooth="yes"/>
      <point x="1102" y="50"/>
      <point x="1104" y="39"/>
      <point x="1104" y="29" type="curve" smooth="yes"/>
      <point x="1104" y="19"/>
      <point x="1100" y="10"/>
      <point x="1092" y="2" type="curve" smooth="yes"/>
      <point x="1086" y="-3"/>
      <point x="1063" y="-12"/>
      <point x="1024" y="-21" type="curve" smooth="yes"/>
      <point x="893" y="-49" type="line"/>
      <point x="890" y="-74"/>
      <point x="889" y="-100"/>
      <point x="889" y="-127" type="curve"/>
      <point x="947" y="-125" type="line"/>
      <point x="1147" y="-114" type="line" smooth="yes"/>
      <point x="1175" y="-113"/>
      <point x="1220" y="-112"/>
      <point x="1282" y="-112" type="curve" smooth="yes"/>
      <point x="1338" y="-112"/>
      <point x="1401" y="-114"/>
      <point x="1471" y="-120" type="curve" smooth="yes"/>
      <point x="1541" y="-125"/>
      <point x="1605" y="-128"/>
      <point x="1663" y="-128" type="curve"/>
      <point x="1664" y="-116"/>
      <point x="1664" y="-108"/>
      <point x="1664" y="-102" type="curve" smooth="yes"/>
      <point x="1664" y="-90"/>
      <point x="1662" y="-71"/>
      <point x="1658" y="-45" type="curve"/>
      <point x="1621" y="-31"/>
      <point x="1587" y="-22"/>
      <point x="1555" y="-18" type="curve" smooth="yes"/>
      <point x="1523" y="-15"/>
      <point x="1500" y="-7"/>
      <point x="1486" y="5" type="curve"/>
      <point x="1478" y="10"/>
      <point x="1466" y="29"/>
      <point x="1451" y="62" type="curve"/>
      <point x="1421" y="122"/>
      <point x="1400" y="172"/>
      <point x="1386" y="211" type="curve" smooth="yes"/>
      <point x="1359" y="284"/>
      <point x="1337" y="339"/>
      <point x="1321" y="375" type="curve" smooth="yes"/>
      <point x="1295" y="436"/>
      <point x="1262" y="514"/>
      <point x="1225" y="610" type="curve" smooth="yes"/>
      <point x="1189" y="706"/>
      <point x="1145" y="804"/>
      <point x="1101" y="907" type="curve" smooth="yes"/>
      <point x="896" y="1387" type="line"/>
      <point x="885" y="1408" type="line"/>
      <point x="832" y="1408" type="line" smooth="yes"/>
      <point x="808" y="1408"/>
      <point x="783" y="1408"/>
      <point x="757" y="1408" type="curve"/>
      <point x="477" y="684" type="line"/>
      <point x="240" y="68" type="line"/>
      <point x="221" y="32"/>
      <point x="205" y="10"/>
      <point x="192" y="0" type="curve" smooth="yes"/>
      <point x="179" y="-9"/>
      <point x="142" y="-20"/>
      <point x="82" y="-31" type="curve" smooth="yes"/>
      <point x="44" y="-38"/>
      <point x="17" y="-44"/>
      <point x="2" y="-49" type="curve"/>
      <point x="0" y="-128" type="line"/>
    </contour>
  </outline>
</glyph>
<glyph name="bold" format="1">
  <advance width="1408"/>
  <unicode hex="F032"/>
  <outline>
    <contour>
      <point x="555" y="15" type="curve"/>
      <point x="548" y="32"/>
      <point x="543" y="47"/>
      <point x="543" y="59" type="curve" smooth="yes"/>
      <point x="540" y="329" type="line"/>
      <point x="541" y="502" type="line"/>
      <point x="541" y="646" type="line"/>
      <point x="560" y="653"/>
      <point x="593" y="656"/>
      <point x="642" y="656" type="curve" smooth="yes"/>
      <point x="752" y="656"/>
      <point x="834" y="646"/>
      <point x="889" y="624" type="curve" smooth="yes"/>
      <point x="944" y="603"/>
      <point x="991" y="561"/>
      <point x="1030" y="498" type="curve" smooth="yes"/>
      <point x="1058" y="453"/>
      <point x="1071" y="393"/>
      <point x="1071" y="318" type="curve" smooth="yes"/>
      <point x="1071" y="245"/>
      <point x="1059" y="185"/>
      <point x="1033" y="137" type="curve"/>
      <point x="1008" y="88"/>
      <point x="967" y="51"/>
      <point x="911" y="24" type="curve" smooth="yes"/>
      <point x="855" y="-3"/>
      <point x="784" y="-17"/>
      <point x="695" y="-17" type="curve" smooth="yes"/>
      <point x="652" y="-17"/>
      <point x="605" y="-6"/>
    </contour>
    <contour>
      <point x="541" y="761" type="curve"/>
      <point x="540" y="795"/>
      <point x="540" y="821"/>
      <point x="540" y="838" type="curve" smooth="yes"/>
      <point x="541" y="936" type="line" smooth="yes"/>
      <point x="542" y="1056"/>
      <point x="539" y="1148"/>
      <point x="535" y="1215" type="curve" smooth="yes"/>
      <point x="533" y="1248"/>
      <point x="533" y="1274"/>
      <point x="533" y="1292" type="curve"/>
      <point x="587" y="1301"/>
      <point x="630" y="1305"/>
      <point x="663" y="1305" type="curve" smooth="yes"/>
      <point x="777" y="1305"/>
      <point x="862" y="1280"/>
      <point x="918" y="1230" type="curve" smooth="yes"/>
      <point x="975" y="1180"/>
      <point x="1003" y="1118"/>
      <point x="1003" y="1043" type="curve" smooth="yes"/>
      <point x="1003" y="937"/>
      <point x="973" y="862"/>
      <point x="914" y="819" type="curve" smooth="yes"/>
      <point x="854" y="775"/>
      <point x="766" y="754"/>
      <point x="650" y="754" type="curve" smooth="yes"/>
      <point x="608" y="754"/>
      <point x="572" y="756"/>
    </contour>
    <contour>
      <point x="0" y="-128" type="line"/>
      <point x="149" y="-123"/>
      <point x="239" y="-120"/>
      <point x="272" y="-117" type="curve"/>
      <point x="387" y="-110"/>
      <point x="486" y="-104"/>
      <point x="570" y="-106" type="curve" smooth="yes"/>
      <point x="767" y="-110" type="line"/>
      <point x="855" y="-113"/>
      <point x="921" y="-107"/>
      <point x="965" y="-99" type="curve" smooth="yes"/>
      <point x="1051" y="-83"/>
      <point x="1119" y="-63"/>
      <point x="1168" y="-39" type="curve" smooth="yes"/>
      <point x="1217" y="-15"/>
      <point x="1264" y="21"/>
      <point x="1308" y="69" type="curve" smooth="yes"/>
      <point x="1341" y="105"/>
      <point x="1365" y="144"/>
      <point x="1379" y="186" type="curve" smooth="yes"/>
      <point x="1398" y="242"/>
      <point x="1408" y="296"/>
      <point x="1408" y="347" type="curve" smooth="yes"/>
      <point x="1408" y="434"/>
      <point x="1377" y="513"/>
      <point x="1316" y="583" type="curve" smooth="yes"/>
      <point x="1255" y="654"/>
      <point x="1166" y="702"/>
      <point x="1049" y="729" type="curve"/>
      <point x="1127" y="765"/>
      <point x="1178" y="790"/>
      <point x="1199" y="806" type="curve" smooth="yes"/>
      <point x="1242" y="838"/>
      <point x="1273" y="873"/>
      <point x="1294" y="911" type="curve" smooth="yes"/>
      <point x="1315" y="949"/>
      <point x="1326" y="992"/>
      <point x="1326" y="1039" type="curve" smooth="yes"/>
      <point x="1326" y="1082"/>
      <point x="1319" y="1123"/>
      <point x="1305" y="1161" type="curve" smooth="yes"/>
      <point x="1291" y="1199"/>
      <point x="1269" y="1234"/>
      <point x="1240" y="1265" type="curve" smooth="yes"/>
      <point x="1211" y="1295"/>
      <point x="1177" y="1321"/>
      <point x="1138" y="1341" type="curve" smooth="yes"/>
      <point x="1098" y="1361"/>
      <point x="1066" y="1373"/>
      <point x="1042" y="1380" type="curve" smooth="yes"/>
      <point x="973" y="1398"/>
      <point x="910" y="1407"/>
      <point x="851" y="1407" type="curve" smooth="yes"/>
      <point x="777" y="1407" type="line" smooth="yes"/>
      <point x="743" y="1407"/>
      <point x="723" y="1408"/>
      <point x="715" y="1408" type="curve" smooth="yes"/>
      <point x="706" y="1408"/>
      <point x="696" y="1407"/>
      <point x="687" y="1407" type="curve" smooth="yes"/>
      <point x="642" y="1406" type="line"/>
      <point x="262" y="1393" type="line"/>
      <point x="2" y="1387" type="line"/>
      <point x="6" y="1304" type="line"/>
      <point x="67" y="1296"/>
      <point x="105" y="1292"/>
      <point x="120" y="1291" type="curve" smooth="yes"/>
      <point x="154" y="1289"/>
      <point x="177" y="1284"/>
      <point x="189" y="1276" type="curve" smooth="yes"/>
      <point x="194" y="1272"/>
      <point x="199" y="1269"/>
      <point x="201" y="1264" type="curve" smooth="yes"/>
      <point x="207" y="1250"/>
      <point x="211" y="1214"/>
      <point x="212" y="1155" type="curve" smooth="yes"/>
      <point x="218" y="937"/>
      <point x="220" y="803"/>
      <point x="221" y="751" type="curve"/>
      <point x="223" y="254" type="line" smooth="yes"/>
      <point x="223" y="169"/>
      <point x="220" y="104"/>
      <point x="214" y="60" type="curve"/>
      <point x="211" y="44"/>
      <point x="204" y="27"/>
      <point x="193" y="9" type="curve"/>
      <point x="161" y="-4"/>
      <point x="120" y="-14"/>
      <point x="70" y="-22" type="curve"/>
      <point x="43" y="-25"/>
      <point x="21" y="-30"/>
      <point x="2" y="-34" type="curve"/>
    </contour>
  </outline>
</glyph>
<glyph name="italic" format="1">
  <advance width="1024"/>
  <unicode hex="F033"/>
  <outline>
    <contour>
      <point x="0" y="-126" type="line"/>
      <point x="15" y="-125"/>
      <point x="48" y="-122"/>
      <point x="98" y="-117" type="curve" smooth="yes"/>
      <point x="175" y="-110"/>
      <point x="233" y="-105"/>
      <point x="272" y="-106" type="curve"/>
      <point x="470" y="-108" type="line"/>
      <point x="556" y="-117"/>
      <point x="605" y="-123"/>
      <point x="615" y="-125" type="curve" smooth="yes"/>
      <point x="628" y="-127"/>
      <point x="638" y="-128"/>
      <point x="643" y="-128" type="curve" smooth="yes"/>
      <point x="647" y="-128"/>
      <point x="661" y="-128"/>
      <point x="685" y="-126" type="curve" smooth="yes"/>
      <point x="690" y="-125"/>
      <point x="698" y="-125"/>
      <point x="708" y="-125" type="curve"/>
      <point x="712" y="-106"/>
      <point x="715" y="-93"/>
      <point x="717" y="-84" type="curve" smooth="yes"/>
      <point x="720" y="-69"/>
      <point x="723" y="-49"/>
      <point x="724" y="-26" type="curve"/>
      <point x="687" y="-20"/>
      <point x="665" y="-17"/>
      <point x="658" y="-16" type="curve" smooth="yes"/>
      <point x="622" y="-12"/>
      <point x="582" y="-5"/>
      <point x="539" y="5" type="curve"/>
      <point x="537" y="17"/>
      <point x="536" y="26"/>
      <point x="538" y="32" type="curve" smooth="yes"/>
      <point x="550" y="77" type="line"/>
      <point x="593" y="312" type="line"/>
      <point x="631" y="470" type="line"/>
      <point x="692" y="781" type="line"/>
      <point x="707" y="852"/>
      <point x="729" y="954"/>
      <point x="758" y="1087" type="curve"/>
      <point x="760" y="1108"/>
      <point x="764" y="1136"/>
      <point x="771" y="1169" type="curve" smooth="yes"/>
      <point x="779" y="1208"/>
      <point x="787" y="1237"/>
      <point x="795" y="1257" type="curve"/>
      <point x="822" y="1268"/>
      <point x="856" y="1278"/>
      <point x="896" y="1288" type="curve" smooth="yes"/>
      <point x="936" y="1297"/>
      <point x="973" y="1308"/>
      <point x="1005" y="1319" type="curve"/>
      <point x="1011" y="1340"/>
      <point x="1015" y="1357"/>
      <point x="1018" y="1370" type="curve" smooth="yes"/>
      <point x="1020" y="1381"/>
      <point x="1022" y="1393"/>
      <point x="1024" y="1408" type="curve"/>
      <point x="1010" y="1407"/>
      <point x="975" y="1405"/>
      <point x="920" y="1401" type="curve" smooth="yes"/>
      <point x="821" y="1395"/>
      <point x="750" y="1392"/>
      <point x="706" y="1392" type="curve" smooth="yes"/>
      <point x="696" y="1392"/>
      <point x="672" y="1392"/>
      <point x="633" y="1394" type="curve" smooth="yes"/>
      <point x="316" y="1408" type="line"/>
      <point x="297" y="1305" type="line"/>
      <point x="306" y="1303"/>
      <point x="319" y="1302"/>
      <point x="335" y="1301" type="curve" smooth="yes"/>
      <point x="403" y="1297"/>
      <point x="451" y="1288"/>
      <point x="479" y="1273" type="curve"/>
      <point x="479" y="1255"/>
      <point x="480" y="1243"/>
      <point x="479" y="1235" type="curve" smooth="yes"/>
      <point x="471" y="1185" type="line"/>
      <point x="449" y="1050" type="line"/>
      <point x="433" y="987" type="line"/>
      <point x="404" y="830" type="line" smooth="yes"/>
      <point x="403" y="825"/>
      <point x="376" y="747"/>
      <point x="346" y="590" type="curve" smooth="yes"/>
      <point x="334" y="526" type="line"/>
      <point x="278" y="258" type="line"/>
      <point x="251" y="119" type="line" smooth="yes"/>
      <point x="243" y="76"/>
      <point x="229" y="42"/>
      <point x="210" y="18" type="curve"/>
      <point x="184" y="5"/>
      <point x="146" y="-8"/>
      <point x="94" y="-21" type="curve" smooth="yes"/>
      <point x="59" y="-30"/>
      <point x="33" y="-36"/>
      <point x="17" y="-41" type="curve"/>
    </contour>
  </outline>
</glyph>
<glyph name="text_height" format="1">
  <advance width="1792"/>
  <unicode hex="F034"/>
  <outline>
    <contour>
      <point x="81" y="1407" type="line"/>
      <point x="0" y="1406" type="line"/>
      <point x="0" y="1376"/>
      <point x="0" y="1364"/>
      <point x="0" y="1320" type="curve" smooth="yes"/>
      <point x="0" y="1169"/>
      <point x="0" y="1129"/>
      <point x="0" y="1023" type="curve"/>
      <point x="8" y="1012"/>
      <point x="27" y="997"/>
      <point x="56" y="979" type="curve"/>
      <point x="64" y="979"/>
      <point x="87" y="996"/>
      <point x="96" y="1024" type="curve" smooth="yes"/>
      <point x="128" y="1120"/>
      <point x="136" y="1197"/>
      <point x="164" y="1216" type="curve" smooth="yes"/>
      <point x="184" y="1230"/>
      <point x="277" y="1254"/>
      <point x="337" y="1254" type="curve" smooth="yes"/>
      <point x="445" y="1254"/>
      <point x="466" y="1251"/>
      <point x="485" y="1248" type="curve" smooth="yes"/>
      <point x="491" y="1247"/>
      <point x="495" y="1245"/>
      <point x="499" y="1242" type="curve" smooth="yes"/>
      <point x="502" y="1239"/>
      <point x="504" y="1233"/>
      <point x="505" y="1227" type="curve" smooth="yes"/>
      <point x="509" y="1202"/>
      <point x="506" y="1066"/>
      <point x="507" y="949" type="curve" smooth="yes"/>
      <point x="512" y="521" type="line" smooth="yes"/>
      <point x="514" y="323"/>
      <point x="510" y="179"/>
      <point x="506" y="88" type="curve"/>
      <point x="504" y="65"/>
      <point x="500" y="46"/>
      <point x="494" y="32" type="curve"/>
      <point x="469" y="17"/>
      <point x="401" y="0"/>
      <point x="335" y="-18" type="curve" smooth="yes"/>
      <point x="296" y="-29"/>
      <point x="270" y="-45"/>
      <point x="256" y="-67" type="curve"/>
      <point x="256" y="-76" type="line"/>
      <point x="257" y="-102" type="line" smooth="yes"/>
      <point x="257" y="-108"/>
      <point x="258" y="-117"/>
      <point x="259" y="-128" type="curve"/>
      <point x="270" y="-128"/>
      <point x="293" y="-127"/>
      <point x="329" y="-124" type="curve" smooth="yes"/>
      <point x="422" y="-115"/>
      <point x="543" y="-110"/>
      <point x="562" y="-110" type="curve" smooth="yes"/>
      <point x="682" y="-110"/>
      <point x="755" y="-113"/>
      <point x="800" y="-118" type="curve" smooth="yes"/>
      <point x="846" y="-124"/>
      <point x="922" y="-128"/>
      <point x="987" y="-128" type="curve" smooth="yes"/>
      <point x="996" y="-128"/>
      <point x="1007" y="-128"/>
      <point x="1021" y="-127" type="curve"/>
      <point x="1023" y="-114"/>
      <point x="1024" y="-104"/>
      <point x="1024" y="-98" type="curve" smooth="yes"/>
      <point x="1024" y="-91"/>
      <point x="1022" y="-75"/>
      <point x="1019" y="-48" type="curve"/>
      <point x="1005" y="-41"/>
      <point x="988" y="-35"/>
      <point x="969" y="-30" type="curve" smooth="yes"/>
      <point x="927" y="-18"/>
      <point x="869" y="-1"/>
      <point x="864" y="0" type="curve" smooth="yes"/>
      <point x="837" y="5"/>
      <point x="785" y="27"/>
      <point x="775" y="32" type="curve"/>
      <point x="767" y="58"/>
      <point x="763" y="64"/>
      <point x="764" y="117" type="curve" smooth="yes"/>
      <point x="765" y="264" type="line"/>
      <point x="762" y="623" type="line"/>
      <point x="762" y="955" type="line"/>
      <point x="761" y="1107" type="line"/>
      <point x="760" y="1126"/>
      <point x="766" y="1214"/>
      <point x="769" y="1243" type="curve"/>
      <point x="795" y="1247"/>
      <point x="818" y="1248"/>
      <point x="836" y="1248" type="curve" smooth="yes"/>
      <point x="955" y="1248"/>
      <point x="1078" y="1252"/>
      <point x="1093" y="1248" type="curve" smooth="yes"/>
      <point x="1103" y="1245"/>
      <point x="1112" y="1238"/>
      <point x="1120" y="1229" type="curve" smooth="yes"/>
      <point x="1125" y="1223"/>
      <point x="1134" y="1128"/>
      <point x="1153" y="1072" type="curve" smooth="yes"/>
      <point x="1172" y="1016"/>
      <point x="1190" y="973"/>
      <point x="1207" y="944" type="curve"/>
      <point x="1227" y="946"/>
      <point x="1249" y="952"/>
      <point x="1275" y="962" type="curve"/>
      <point x="1278" y="976"/>
      <point x="1279" y="993"/>
      <point x="1279" y="1013" type="curve" smooth="yes"/>
      <point x="1280" y="1071" type="line"/>
      <point x="1279" y="1171" type="line" smooth="yes"/>
      <point x="1278" y="1276"/>
      <point x="1279" y="1355"/>
      <point x="1278" y="1407" type="curve"/>
      <point x="1265" y="1408"/>
      <point x="1256" y="1408"/>
      <point x="1250" y="1408" type="curve" smooth="yes"/>
      <point x="1208" y="1407" type="line"/>
      <point x="1208" y="1407"/>
      <point x="1184" y="1374"/>
      <point x="1152" y="1376" type="curve" smooth="yes"/>
      <point x="1118" y="1378" type="line"/>
      <point x="825" y="1378" type="line"/>
      <point x="610" y="1379" type="line"/>
      <point x="495" y="1378" type="line"/>
      <point x="476" y="1375" type="line"/>
      <point x="438" y="1375"/>
      <point x="395" y="1375"/>
      <point x="346" y="1375" type="curve" smooth="yes"/>
      <point x="268" y="1375"/>
      <point x="143" y="1378"/>
      <point x="135" y="1380" type="curve"/>
    </contour>
    <contour>
      <point x="1744" y="128" type="curve"/>
      <point x="1664" y="128" type="line"/>
      <point x="1664" y="1152" type="line"/>
      <point x="1744" y="1152" type="line" smooth="yes"/>
      <point x="1788" y="1152"/>
      <point x="1802" y="1180"/>
      <point x="1775" y="1215" type="curve" smooth="yes"/>
      <point x="1649" y="1377" type="line" smooth="yes"/>
      <point x="1622" y="1412"/>
      <point x="1578" y="1412"/>
      <point x="1551" y="1377" type="curve" smooth="yes"/>
      <point x="1425" y="1215" type="line" smooth="yes"/>
      <point x="1398" y="1180"/>
      <point x="1412" y="1152"/>
      <point x="1456" y="1152" type="curve" smooth="yes"/>
      <point x="1536" y="1152" type="line"/>
      <point x="1536" y="128" type="line"/>
      <point x="1456" y="128" type="line" smooth="yes"/>
      <point x="1412" y="128"/>
      <point x="1398" y="100"/>
      <point x="1425" y="65" type="curve" smooth="yes"/>
      <point x="1551" y="-97" type="line" smooth="yes"/>
      <point x="1578" y="-132"/>
      <point x="1622" y="-132"/>
      <point x="1649" y="-97" type="curve" smooth="yes"/>
      <point x="1775" y="65" type="line" smooth="yes"/>
      <point x="1802" y="100"/>
      <point x="1788" y="128"/>
    </contour>
  </outline>
</glyph>
<glyph name="text_width" format="1">
  <advance width="1536"/>
  <unicode hex="F035"/>
  <outline>
    <contour>
      <point x="81" y="1407" type="line"/>
      <point x="0" y="1406" type="line"/>
      <point x="0" y="1376"/>
      <point x="0" y="1364"/>
      <point x="0" y="1320" type="curve" smooth="yes"/>
      <point x="0" y="1169"/>
      <point x="0" y="1129"/>
      <point x="0" y="1023" type="curve"/>
      <point x="8" y="1012"/>
      <point x="27" y="997"/>
      <point x="56" y="979" type="curve"/>
      <point x="64" y="979"/>
      <point x="87" y="996"/>
      <point x="96" y="1024" type="curve" smooth="yes"/>
      <point x="128" y="1120"/>
      <point x="136" y="1197"/>
      <point x="164" y="1216" type="curve" smooth="yes"/>
      <point x="184" y="1230"/>
      <point x="405" y="1254"/>
      <point x="465" y="1254" type="curve" smooth="yes"/>
      <point x="573" y="1254"/>
      <point x="594" y="1251"/>
      <point x="613" y="1248" type="curve" smooth="yes"/>
      <point x="619" y="1247"/>
      <point x="623" y="1245"/>
      <point x="627" y="1242" type="curve" smooth="yes"/>
      <point x="630" y="1239"/>
      <point x="632" y="1233"/>
      <point x="633" y="1227" type="curve" smooth="yes"/>
      <point x="637" y="1202"/>
      <point x="635" y="1066"/>
      <point x="635" y="949" type="curve"/>
      <point x="640" y="905" type="line"/>
      <point x="640" y="707"/>
      <point x="638" y="563"/>
      <point x="634" y="472" type="curve"/>
      <point x="632" y="449"/>
      <point x="628" y="430"/>
      <point x="622" y="416" type="curve"/>
      <point x="597" y="401"/>
      <point x="529" y="384"/>
      <point x="463" y="366" type="curve" smooth="yes"/>
      <point x="424" y="355"/>
      <point x="398" y="339"/>
      <point x="384" y="317" type="curve"/>
      <point x="384" y="308" type="line"/>
      <point x="385" y="282" type="line" smooth="yes"/>
      <point x="385" y="276"/>
      <point x="386" y="267"/>
      <point x="387" y="256" type="curve"/>
      <point x="398" y="256"/>
      <point x="421" y="257"/>
      <point x="457" y="261" type="curve"/>
      <point x="550" y="269"/>
      <point x="671" y="274"/>
      <point x="690" y="274" type="curve" smooth="yes"/>
      <point x="810" y="274"/>
      <point x="883" y="271"/>
      <point x="928" y="266" type="curve" smooth="yes"/>
      <point x="974" y="260"/>
      <point x="1050" y="256"/>
      <point x="1115" y="256" type="curve" smooth="yes"/>
      <point x="1124" y="256"/>
      <point x="1135" y="256"/>
      <point x="1149" y="257" type="curve"/>
      <point x="1151" y="270"/>
      <point x="1152" y="280"/>
      <point x="1152" y="286" type="curve" smooth="yes"/>
      <point x="1152" y="293"/>
      <point x="1150" y="309"/>
      <point x="1147" y="336" type="curve"/>
      <point x="1133" y="343"/>
      <point x="1116" y="349"/>
      <point x="1097" y="354" type="curve" smooth="yes"/>
      <point x="1055" y="366"/>
      <point x="997" y="383"/>
      <point x="992" y="384" type="curve" smooth="yes"/>
      <point x="965" y="389"/>
      <point x="913" y="411"/>
      <point x="903" y="416" type="curve"/>
      <point x="895" y="442"/>
      <point x="891" y="448"/>
      <point x="892" y="501" type="curve" smooth="yes"/>
      <point x="893" y="648" type="line"/>
      <point x="890" y="1007" type="line"/>
      <point x="890" y="955" type="line"/>
      <point x="889" y="1107" type="line"/>
      <point x="888" y="1126"/>
      <point x="894" y="1214"/>
      <point x="897" y="1243" type="curve"/>
      <point x="923" y="1247"/>
      <point x="1006" y="1248"/>
      <point x="1024" y="1248" type="curve" smooth="yes"/>
      <point x="1143" y="1248"/>
      <point x="1334" y="1252"/>
      <point x="1349" y="1248" type="curve" smooth="yes"/>
      <point x="1359" y="1245"/>
      <point x="1368" y="1238"/>
      <point x="1376" y="1229" type="curve" smooth="yes"/>
      <point x="1381" y="1223"/>
      <point x="1390" y="1128"/>
      <point x="1409" y="1072" type="curve" smooth="yes"/>
      <point x="1428" y="1016"/>
      <point x="1446" y="973"/>
      <point x="1463" y="944" type="curve"/>
      <point x="1483" y="946"/>
      <point x="1505" y="952"/>
      <point x="1531" y="962" type="curve"/>
      <point x="1534" y="976"/>
      <point x="1535" y="993"/>
      <point x="1535" y="1013" type="curve" smooth="yes"/>
      <point x="1536" y="1071" type="line"/>
      <point x="1535" y="1171" type="line" smooth="yes"/>
      <point x="1534" y="1276"/>
      <point x="1535" y="1355"/>
      <point x="1534" y="1407" type="curve"/>
      <point x="1521" y="1408"/>
      <point x="1512" y="1408"/>
      <point x="1506" y="1408" type="curve" smooth="yes"/>
      <point x="1464" y="1407" type="line"/>
      <point x="1464" y="1407"/>
      <point x="1440" y="1374"/>
      <point x="1408" y="1376" type="curve" smooth="yes"/>
      <point x="1374" y="1378" type="line"/>
      <point x="1056" y="1378" type="line"/>
      <point x="610" y="1379" type="line"/>
      <point x="495" y="1378" type="line"/>
      <point x="476" y="1375" type="line"/>
      <point x="438" y="1375"/>
      <point x="395" y="1375"/>
      <point x="346" y="1375" type="curve" smooth="yes"/>
      <point x="268" y="1375"/>
      <point x="143" y="1378"/>
      <point x="135" y="1380" type="curve"/>
    </contour>
    <contour>
      <point x="1505" y="113" type="curve"/>
      <point x="1343" y="239" type="line" smooth="yes"/>
      <point x="1308" y="266"/>
      <point x="1280" y="252"/>
      <point x="1280" y="208" type="curve" smooth="yes"/>
      <point x="1280" y="128" type="line"/>
      <point x="256" y="128" type="line"/>
      <point x="256" y="208" type="line" smooth="yes"/>
      <point x="256" y="252"/>
      <point x="228" y="266"/>
      <point x="193" y="239" type="curve" smooth="yes"/>
      <point x="31" y="113" type="line" smooth="yes"/>
      <point x="-4" y="86"/>
      <point x="-4" y="42"/>
      <point x="31" y="15" type="curve" smooth="yes"/>
      <point x="193" y="-111" type="line" smooth="yes"/>
      <point x="228" y="-138"/>
      <point x="256" y="-124"/>
      <point x="256" y="-80" type="curve" smooth="yes"/>
      <point x="256" y="0" type="line"/>
      <point x="1280" y="0" type="line"/>
      <point x="1280" y="-80" type="line" smooth="yes"/>
      <point x="1280" y="-124"/>
      <point x="1308" y="-138"/>
      <point x="1343" y="-111" type="curve" smooth="yes"/>
      <point x="1505" y="15" type="line" smooth="yes"/>
      <point x="1540" y="42"/>
      <point x="1540" y="86"/>
    </contour>
  </outline>
</glyph>
<glyph name="chevron_left" format="1">
  <advance width="1152"/>
  <unicode hex="F053"/>
  <outline>
    <contour>
      <point x="742" y="-37" type="line"/>
      <point x="791" y="-87"/>
      <point x="873" y="-87"/>
      <point x="923" y="-37" type="curve" smooth="yes"/>
      <point x="998" y="38" type="line" smooth="yes"/>
      <point x="1047" y="87"/>
      <point x="1047" y="169"/>
      <point x="998" y="219" type="curve"/>
      <point x="512" y="704" type="line"/>
      <point x="998" y="1190" type="line" smooth="yes"/>
      <point x="1047" y="1239"/>
      <point x="1047" y="1321"/>
      <point x="998" y="1371" type="curve" smooth="yes"/>
      <point x="923" y="1446" type="line" smooth="yes"/>
      <point x="873" y="1495"/>
      <point x="791" y="1495"/>
      <point x="742" y="1446" type="curve" smooth="yes"/>
      <point x="90" y="795" type="line"/>
      <point x="41" y="745"/>
      <point x="41" y="663"/>
      <point x="90" y="614" type="curve" smooth="yes"/>
    </contour>
  </outline>
</glyph>
<glyph name="chevron_right" format="1">
  <advance width="1152"/>
  <unicode hex="F054"/>
  <outline>
    <contour>
      <point x="1099" y="704" type="curve" smooth="yes"/>
      <point x="1099" y="738"/>
      <point x="1085" y="771"/>
      <point x="1062" y="794" type="curve" smooth="yes"/>
      <point x="410" y="1445" type="line"/>
      <point x="387" y="1469"/>
      <point x="354" y="1483"/>
      <point x="320" y="1483" type="curve" smooth="yes"/>
      <point x="286" y="1483"/>
      <point x="253" y="1469"/>
      <point x="230" y="1445" type="curve"/>
      <point x="154" y="1370" type="line" smooth="yes"/>
      <point x="131" y="1347"/>
      <point x="117" y="1314"/>
      <point x="117" y="1280" type="curve" smooth="yes"/>
      <point x="117" y="1246"/>
      <point x="131" y="1213"/>
      <point x="154" y="1189" type="curve"/>
      <point x="640" y="704" type="line"/>
      <point x="154" y="218" type="line" smooth="yes"/>
      <point x="131" y="195"/>
      <point x="117" y="162"/>
      <point x="117" y="128" type="curve" smooth="yes"/>
      <point x="117" y="94"/>
      <point x="131" y="61"/>
      <point x="154" y="37" type="curve"/>
      <point x="230" y="-38" type="line" smooth="yes"/>
      <point x="253" y="-61"/>
      <point x="286" y="-75"/>
      <point x="320" y="-75" type="curve" smooth="yes"/>
      <point x="354" y="-75"/>
      <point x="387" y="-61"/>
      <point x="410" y="-38" type="curve" smooth="yes"/>
      <point x="1062" y="613" type="line"/>
      <point x="1085" y="637"/>
      <point x="1099" y="670"/>
    </contour>
  </outline>
</glyph>
<glyph name="chevron_up" format="1">
  <advance width="1664"/>
  <unicode hex="F077"/>
  <outline>
    <contour>
      <point x="1611" y="320" type="curve" smooth="yes"/>
      <point x="1611" y="354"/>
      <point x="1597" y="387"/>
      <point x="1573" y="411" type="curve" smooth="yes"/>
      <point x="923" y="1062" type="line"/>
      <point x="899" y="1085"/>
      <point x="866" y="1099"/>
      <point x="832" y="1099" type="curve" smooth="yes"/>
      <point x="798" y="1099"/>
      <point x="765" y="1085"/>
      <point x="742" y="1062" type="curve" smooth="yes"/>
      <point x="91" y="411" type="line" smooth="yes"/>
      <point x="67" y="387"/>
      <point x="53" y="354"/>
      <point x="53" y="320" type="curve" smooth="yes"/>
      <point x="53" y="286"/>
      <point x="67" y="253"/>
      <point x="91" y="230" type="curve" smooth="yes"/>
      <point x="166" y="155" type="line" smooth="yes"/>
      <point x="189" y="131"/>
      <point x="222" y="117"/>
      <point x="256" y="117" type="curve" smooth="yes"/>
      <point x="290" y="117"/>
      <point x="323" y="131"/>
      <point x="346" y="155" type="curve"/>
      <point x="832" y="640" type="line"/>
      <point x="1318" y="155" type="line"/>
      <point x="1341" y="131"/>
      <point x="1374" y="117"/>
      <point x="1408" y="117" type="curve" smooth="yes"/>
      <point x="1442" y="117"/>
      <point x="1475" y="131"/>
      <point x="1499" y="155" type="curve" smooth="yes"/>
      <point x="1574" y="230" type="line" smooth="yes"/>
      <point x="1597" y="253"/>
      <point x="1611" y="286"/>
    </contour>
  </outline>
</glyph>
<glyph name="chevron_down" format="1">
  <advance width="1664"/>
  <unicode hex="F078"/>
  <outline>
    <contour>
      <point x="1611" y="832" type="curve" smooth="yes"/>
      <point x="1611" y="866"/>
      <point x="1597" y="899"/>
      <point x="1574" y="923" type="curve" smooth="yes"/>
      <point x="1499" y="998" type="line" smooth="yes"/>
      <point x="1475" y="1021"/>
      <point x="1442" y="1035"/>
      <point x="1408" y="1035" type="curve" smooth="yes"/>
      <point x="1374" y="1035"/>
      <point x="1341" y="1021"/>
      <point x="1318" y="998" type="curve" smooth="yes"/>
      <point x="832" y="512" type="line"/>
      <point x="346" y="998" type="line" smooth="yes"/>
      <point x="323" y="1021"/>
      <point x="290" y="1035"/>
      <point x="256" y="1035" type="curve" smooth="yes"/>
      <point x="222" y="1035"/>
      <point x="189" y="1021"/>
      <point x="165" y="998" type="curve"/>
      <point x="91" y="923" type="line" smooth="yes"/>
      <point x="67" y="899"/>
      <point x="53" y="866"/>
      <point x="53" y="832" type="curve" smooth="yes"/>
      <point x="53" y="798"/>
      <point x="67" y="765"/>
      <point x="91" y="742" type="curve" smooth="yes"/>
      <point x="742" y="91" type="line" smooth="yes"/>
      <point x="765" y="67"/>
      <point x="798" y="53"/>
      <point x="832" y="53" type="curve" smooth="yes"/>
      <point x="866" y="53"/>
      <point x="899" y="67"/>
      <point x="923" y="91" type="curve" smooth="yes"/>
      <point x="1574" y="742" type="line" smooth="yes"/>
      <point x="1597" y="765"/>
      <point x="1611" y="798"/>
    </contour>
  </outline>
</glyph>
<glyph name="shopping_cart" format="1">
  <advance width="1664"/>
  <unicode hex="F07A"/>
  <outline>
    <contour>
      <point x="640" y="0" type="curve" smooth="yes"/>
      <point x="640" y="71"/>
      <point x="583" y="128"/>
      <point x="512" y="128" type="curve" smooth="yes"/>
      <point x="441" y="128"/>
      <point x="384" y="71"/>
      <point x="384" y="0" type="curve" smooth="yes"/>
      <point x="384" y="-71"/>
      <point x="441" y="-128"/>
      <point x="512" y="-128" type="curve" smooth="yes"/>
      <point x="583" y="-128"/>
      <point x="640" y="-71"/>
    </contour>
    <contour>
      <point x="1536" y="0" type="curve" smooth="yes"/>
      <point x="1536" y="71"/>
      <point x="1479" y="128"/>
      <point x="1408" y="128" type="curve" smooth="yes"/>
      <point x="1337" y="128"/>
      <point x="1280" y="71"/>
      <point x="1280" y="0" type="curve" smooth="yes"/>
      <point x="1280" y="-71"/>
      <point x="1337" y="-128"/>
      <point x="1408" y="-128" type="curve" smooth="yes"/>
      <point x="1479" y="-128"/>
      <point x="1536" y="-71"/>
    </contour>
    <contour>
      <point x="1664" y="1088" type="line" smooth="yes"/>
      <point x="1664" y="1123"/>
      <point x="1635" y="1152"/>
      <point x="1600" y="1152" type="curve" smooth="yes"/>
      <point x="399" y="1152" type="line"/>
      <point x="389" y="1200"/>
      <point x="388" y="1280"/>
      <point x="320" y="1280" type="curve" smooth="yes"/>
      <point x="64" y="1280" type="line" smooth="yes"/>
      <point x="29" y="1280"/>
      <point x="0" y="1251"/>
      <point x="0" y="1216" type="curve" smooth="yes"/>
      <point x="0" y="1181"/>
      <point x="29" y="1152"/>
      <point x="64" y="1152" type="curve" smooth="yes"/>
      <point x="268" y="1152" type="line"/>
      <point x="445" y="329" type="line"/>
      <point x="431" y="300"/>
      <point x="384" y="223"/>
      <point x="384" y="192" type="curve" smooth="yes"/>
      <point x="384" y="157"/>
      <point x="413" y="128"/>
      <point x="448" y="128" type="curve" smooth="yes"/>
      <point x="1472" y="128" type="line" smooth="yes"/>
      <point x="1507" y="128"/>
      <point x="1536" y="157"/>
      <point x="1536" y="192" type="curve" smooth="yes"/>
      <point x="1536" y="227"/>
      <point x="1507" y="256"/>
      <point x="1472" y="256" type="curve" smooth="yes"/>
      <point x="552" y="256" type="line"/>
      <point x="562" y="276"/>
      <point x="576" y="297"/>
      <point x="576" y="320" type="curve" smooth="yes"/>
      <point x="576" y="343"/>
      <point x="567" y="368"/>
      <point x="563" y="390" type="curve"/>
      <point x="1607" y="512" type="line" smooth="yes"/>
      <point x="1640" y="516"/>
      <point x="1664" y="544"/>
      <point x="1664" y="576" type="curve" smooth="yes"/>
    </contour>
  </outline>
</glyph>
<glyph name="bar_chart" format="1">
  <advance width="1920"/>
  <unicode hex="F080"/>
  <outline>
    <contour>
      <point x="512" y="512" type="line"/>
      <point x="256" y="512" type="line"/>
      <point x="256" y="128" type="line"/>
      <point x="512" y="128" type="line"/>
    </contour>
    <contour>
      <point x="896" y="1024" type="line"/>
      <point x="640" y="1024" type="line"/>
      <point x="640" y="128" type="line"/>
      <point x="896" y="128" type="line"/>
    </contour>
    <contour>
      <point x="1280" y="768" type="line"/>
      <point x="1024" y="768" type="line"/>
      <point x="1024" y="128" type="line"/>
      <point x="1280" y="128" type="line"/>
    </contour>
    <contour>
      <point x="1664" y="1152" type="line"/>
      <point x="1408" y="1152" type="line"/>
      <point x="1408" y="128" type="line"/>
      <point x="1664" y="128" type="line"/>
    </contour>
    <contour>
      <point x="1792" y="32" type="line"/>
      <point x="1792" y="15"/>
      <point x="1777" y="0"/>
      <point x="1760" y="0" type="curve" smooth="yes"/>
      <point x="160" y="0" type="line" smooth="yes"/>
      <point x="143" y="0"/>
      <point x="128" y="15"/>
      <point x="128" y="32" type="curve" smooth="yes"/>
      <point x="128" y="1248" type="line" smooth="yes"/>
      <point x="128" y="1265"/>
      <point x="143" y="1280"/>
      <point x="160" y="1280" type="curve" smooth="yes"/>
      <point x="1760" y="1280" type="line" smooth="yes"/>
      <point x="1777" y="1280"/>
      <point x="1792" y="1265"/>
      <point x="1792" y="1248" type="curve" smooth="yes"/>
    </contour>
    <contour>
      <point x="1920" y="1248" type="line" smooth="yes"/>
      <point x="1920" y="1336"/>
      <point x="1848" y="1408"/>
      <point x="1760" y="1408" type="curve" smooth="yes"/>
      <point x="160" y="1408" type="line" smooth="yes"/>
      <point x="72" y="1408"/>
      <point x="0" y="1336"/>
      <point x="0" y="1248" type="curve" smooth="yes"/>
      <point x="0" y="32" type="line" smooth="yes"/>
      <point x="0" y="-56"/>
      <point x="72" y="-128"/>
      <point x="160" y="-128" type="curve" smooth="yes"/>
      <point x="1760" y="-128" type="line" smooth="yes"/>
      <point x="1848" y="-128"/>
      <point x="1920" y="-56"/>
      <point x="1920" y="32" type="curve" smooth="yes"/>
    </contour>
  </outline>
</glyph>
<glyph name="facebook_sign" format="1">
  <advance width="1536"/>
  <unicode hex="F082"/>
  <outline>
    <contour>
      <point x="1307" y="618" type="line"/>
      <point x="1132" y="618" type="line"/>
      <point x="1132" y="-17" type="line"/>
      <point x="870" y="-17" type="line"/>
      <point x="870" y="618" type="line"/>
      <point x="739" y="618" type="line"/>
      <point x="739" y="837" type="line"/>
      <point x="870" y="837" type="line"/>
      <point x="870" y="968" type="line" smooth="yes"/>
      <point x="870" y="1147"/>
      <point x="944" y="1253"/>
      <point x="1154" y="1253" type="curve" smooth="yes"/>
      <point x="1329" y="1253" type="line"/>
      <point x="1329" y="1034" type="line"/>
      <point x="1219" y="1034" type="line" smooth="yes"/>
      <point x="1138" y="1034"/>
      <point x="1132" y="1003"/>
      <point x="1132" y="946" type="curve" smooth="yes"/>
      <point x="1132" y="837" type="line"/>
      <point x="1330" y="837" type="line"/>
    </contour>
    <contour>
      <point x="1536" y="1120" type="line" smooth="yes"/>
      <point x="1536" y="1279"/>
      <point x="1407" y="1408"/>
      <point x="1248" y="1408" type="curve" smooth="yes"/>
      <point x="288" y="1408" type="line" smooth="yes"/>
      <point x="129" y="1408"/>
      <point x="0" y="1279"/>
      <point x="0" y="1120" type="curve" smooth="yes"/>
      <point x="0" y="160" type="line" smooth="yes"/>
      <point x="0" y="1"/>
      <point x="129" y="-128"/>
      <point x="288" y="-128" type="curve" smooth="yes"/>
      <point x="1248" y="-128" type="line" smooth="yes"/>
      <point x="1407" y="-128"/>
      <point x="1536" y="1"/>
      <point x="1536" y="160" type="curve" smooth="yes"/>
    </contour>
  </outline>
</glyph>
<glyph name="facebook" format="1">
  <advance width="768"/>
  <unicode hex="F09A"/>
  <outline>
    <contour>
      <point x="511" y="980" type="line"/>
      <point x="511" y="1122" type="line" smooth="yes"/>
      <point x="511" y="1196"/>
      <point x="518" y="1236"/>
      <point x="624" y="1236" type="curve" smooth="yes"/>
      <point x="766" y="1236" type="line"/>
      <point x="766" y="1520" type="line"/>
      <point x="539" y="1520" type="line" smooth="yes"/>
      <point x="266" y="1520"/>
      <point x="170" y="1382"/>
      <point x="170" y="1151" type="curve" smooth="yes"/>
      <point x="170" y="980" type="line"/>
      <point x="0" y="980" type="line"/>
      <point x="0" y="696" type="line"/>
      <point x="170" y="696" type="line"/>
      <point x="170" y="-128" type="line"/>
      <point x="511" y="-128" type="line"/>
      <point x="511" y="696" type="line"/>
      <point x="738" y="696" type="line"/>
      <point x="768" y="980" type="line"/>
    </contour>
  </outline>
</glyph>
<glyph name="github" format="1">
  <advance width="1536"/>
  <unicode hex="F09B"/>
  <outline>
    <contour>
      <point x="1536" y="640" type="curve" smooth="yes"/>
      <point x="1536" y="1064"/>
      <point x="1192" y="1408"/>
      <point x="768" y="1408" type="curve" smooth="yes"/>
      <point x="344" y="1408"/>
      <point x="0" y="1064"/>
      <point x="0" y="640" type="curve" smooth="yes"/>
      <point x="0" y="301"/>
      <point x="220" y="13"/>
      <point x="525" y="-89" type="curve"/>
      <point x="564" y="-96"/>
      <point x="578" y="-72"/>
      <point x="578" y="-52" type="curve" smooth="yes"/>
      <point x="578" y="-34"/>
      <point x="577" y="27"/>
      <point x="577" y="91" type="curve" smooth="yes"/>
      <point x="577" y="91"/>
      <point x="363" y="45"/>
      <point x="318" y="182" type="curve"/>
      <point x="318" y="182"/>
      <point x="283" y="271"/>
      <point x="233" y="294" type="curve"/>
      <point x="233" y="294"/>
      <point x="163" y="342"/>
      <point x="238" y="341" type="curve"/>
      <point x="238" y="341"/>
      <point x="314" y="335"/>
      <point x="356" y="262" type="curve" smooth="yes"/>
      <point x="423" y="144"/>
      <point x="535" y="178"/>
      <point x="579" y="198" type="curve"/>
      <point x="586" y="248"/>
      <point x="606" y="281"/>
      <point x="628" y="301" type="curve"/>
      <point x="457" y="320"/>
      <point x="278" y="386"/>
      <point x="278" y="680" type="curve" smooth="yes"/>
      <point x="278" y="764"/>
      <point x="308" y="833"/>
      <point x="357" y="886" type="curve"/>
      <point x="349" y="906"/>
      <point x="323" y="984"/>
      <point x="364" y="1090" type="curve"/>
      <point x="429" y="1110"/>
      <point x="576" y="1011"/>
      <point x="576" y="1011" type="curve"/>
      <point x="637" y="1028"/>
      <point x="703" y="1037"/>
      <point x="768" y="1037" type="curve" smooth="yes"/>
      <point x="833" y="1037"/>
      <point x="899" y="1028"/>
      <point x="960" y="1011" type="curve"/>
      <point x="960" y="1011"/>
      <point x="1107" y="1110"/>
      <point x="1171" y="1090" type="curve"/>
      <point x="1213" y="984"/>
      <point x="1187" y="906"/>
      <point x="1179" y="886" type="curve"/>
      <point x="1228" y="833"/>
      <point x="1258" y="764"/>
      <point x="1258" y="680" type="curve" smooth="yes"/>
      <point x="1258" y="385"/>
      <point x="1078" y="320"/>
      <point x="907" y="301" type="curve"/>
      <point x="935" y="277"/>
      <point x="959" y="231"/>
      <point x="959" y="159" type="curve" smooth="yes"/>
      <point x="959" y="56"/>
      <point x="959" y="-27"/>
      <point x="959" y="-52" type="curve" smooth="yes"/>
      <point x="959" y="-72"/>
      <point x="972" y="-96"/>
      <point x="1011" y="-89" type="curve"/>
      <point x="1316" y="13"/>
      <point x="1536" y="301"/>
    </contour>
  </outline>
</glyph>
<glyph name="bell" format="1">
  <advance width="1664"/>
  <unicode hex="F0A2"/>
  <outline>
    <contour>
      <point x="848" y="-160" type="curve" smooth="yes"/>
      <point x="848" y="-169"/>
      <point x="841" y="-176"/>
      <point x="832" y="-176" type="curve" smooth="yes"/>
      <point x="735" y="-176"/>
      <point x="656" y="-97"/>
      <point x="656" y="0" type="curve" smooth="yes"/>
      <point x="656" y="9"/>
      <point x="663" y="16"/>
      <point x="672" y="16" type="curve" smooth="yes"/>
      <point x="681" y="16"/>
      <point x="688" y="9"/>
      <point x="688" y="0" type="curve" smooth="yes"/>
      <point x="688" y="-79"/>
      <point x="753" y="-144"/>
      <point x="832" y="-144" type="curve" smooth="yes"/>
      <point x="841" y="-144"/>
      <point x="848" y="-151"/>
    </contour>
    <contour>
      <point x="183" y="128" type="line"/>
      <point x="407" y="375"/>
      <point x="512" y="693"/>
      <point x="512" y="1024" type="curve" smooth="yes"/>
      <point x="512" y="1221"/>
      <point x="657" y="1280"/>
      <point x="832" y="1280" type="curve" smooth="yes"/>
      <point x="1007" y="1280"/>
      <point x="1152" y="1221"/>
      <point x="1152" y="1024" type="curve" smooth="yes"/>
      <point x="1152" y="693"/>
      <point x="1257" y="375"/>
      <point x="1481" y="128" type="curve"/>
    </contour>
    <contour>
      <point x="1664" y="128" type="curve"/>
      <point x="1403" y="349"/>
      <point x="1280" y="688"/>
      <point x="1280" y="1024" type="curve" smooth="yes"/>
      <point x="1280" y="1249"/>
      <point x="1138" y="1377"/>
      <point x="920" y="1403" type="curve"/>
      <point x="925" y="1414"/>
      <point x="928" y="1427"/>
      <point x="928" y="1440" type="curve" smooth="yes"/>
      <point x="928" y="1493"/>
      <point x="885" y="1536"/>
      <point x="832" y="1536" type="curve" smooth="yes"/>
      <point x="779" y="1536"/>
      <point x="736" y="1493"/>
      <point x="736" y="1440" type="curve" smooth="yes"/>
      <point x="736" y="1427"/>
      <point x="739" y="1414"/>
      <point x="744" y="1403" type="curve"/>
      <point x="526" y="1377"/>
      <point x="384" y="1249"/>
      <point x="384" y="1024" type="curve" smooth="yes"/>
      <point x="384" y="688"/>
      <point x="261" y="349"/>
      <point x="0" y="128" type="curve"/>
      <point x="0" y="58"/>
      <point x="58" y="0"/>
      <point x="128" y="0" type="curve" smooth="yes"/>
      <point x="576" y="0" type="line"/>
      <point x="576" y="-141"/>
      <point x="691" y="-256"/>
      <point x="832" y="-256" type="curve" smooth="yes"/>
      <point x="973" y="-256"/>
      <point x="1088" y="-141"/>
      <point x="1088" y="0" type="curve"/>
      <point x="1536" y="0" type="line" smooth="yes"/>
      <point x="1606" y="0"/>
      <point x="1664" y="58"/>
    </contour>
  </outline>
</glyph>
<glyph name="google_plus_sign" format="1">
  <advance width="1536"/>
  <unicode hex="F0D4"/>
  <outline>
    <contour>
      <point x="678" y="-57" type="curve" smooth="yes"/>
      <point x="678" y="83"/>
      <point x="547" y="161"/>
      <point x="445" y="232" type="curve"/>
      <point x="428" y="234"/>
      <point x="412" y="234"/>
      <point x="396" y="234" type="curve" smooth="yes"/>
      <point x="264" y="234"/>
      <point x="81" y="203"/>
      <point x="13" y="76" type="curve"/>
      <point x="49" y="-45"/>
      <point x="162" y="-128"/>
      <point x="288" y="-128" type="curve" smooth="yes"/>
      <point x="668" y="-128" type="line"/>
      <point x="675" y="-105"/>
      <point x="678" y="-81"/>
    </contour>
    <contour>
      <point x="385" y="294" type="curve"/>
      <point x="352" y="337"/>
      <point x="322" y="387"/>
      <point x="322" y="443" type="curve" smooth="yes"/>
      <point x="322" y="474"/>
      <point x="333" y="500"/>
      <point x="343" y="529" type="curve"/>
      <point x="320" y="526"/>
      <point x="296" y="524"/>
      <point x="273" y="524" type="curve" smooth="yes"/>
      <point x="161" y="524"/>
      <point x="74" y="557"/>
      <point x="0" y="642" type="curve"/>
      <point x="0" y="209" type="line"/>
      <point x="120" y="271"/>
      <point x="251" y="290"/>
    </contour>
    <contour>
      <point x="558" y="805" type="curve" smooth="yes"/>
      <point x="558" y="957"/>
      <point x="477" y="1208"/>
      <point x="292" y="1208" type="curve" smooth="yes"/>
      <point x="160" y="1208"/>
      <point x="96" y="1092"/>
      <point x="96" y="974" type="curve" smooth="yes"/>
      <point x="96" y="822"/>
      <point x="196" y="584"/>
      <point x="374" y="584" type="curve" smooth="yes"/>
      <point x="511" y="584"/>
      <point x="558" y="683"/>
    </contour>
    <contour>
      <point x="1536" y="896" type="line"/>
      <point x="1280" y="896" type="line"/>
      <point x="1280" y="640" type="line"/>
      <point x="1152" y="640" type="line"/>
      <point x="1152" y="896" type="line"/>
      <point x="896" y="896" type="line"/>
      <point x="896" y="1024" type="line"/>
      <point x="1152" y="1024" type="line"/>
      <point x="1152" y="1280" type="line"/>
      <point x="1280" y="1280" type="line"/>
      <point x="1280" y="1024" type="line"/>
      <point x="1536" y="1024" type="line"/>
      <point x="1536" y="1120" type="line" smooth="yes"/>
      <point x="1536" y="1279"/>
      <point x="1407" y="1408"/>
      <point x="1248" y="1408" type="curve" smooth="yes"/>
      <point x="288" y="1408" type="line" smooth="yes"/>
      <point x="118" y="1408"/>
      <point x="0" y="1273"/>
      <point x="0" y="1108" type="curve"/>
      <point x="108" y="1243"/>
      <point x="260" y="1280"/>
      <point x="427" y="1280" type="curve" smooth="yes"/>
      <point x="864" y="1280" type="line"/>
      <point x="729" y="1216" type="line"/>
      <point x="594" y="1216" type="line"/>
      <point x="607" y="1186"/>
      <point x="620" y="1190"/>
      <point x="641" y="1171" type="curve" smooth="yes"/>
      <point x="710" y="1107"/>
      <point x="743" y="998"/>
      <point x="743" y="907" type="curve" smooth="yes"/>
      <point x="743" y="643"/>
      <point x="520" y="621"/>
      <point x="520" y="489" type="curve" smooth="yes"/>
      <point x="520" y="360"/>
      <point x="819" y="309"/>
      <point x="819" y="29" type="curve" smooth="yes"/>
      <point x="819" y="-26"/>
      <point x="806" y="-79"/>
      <point x="780" y="-128" type="curve"/>
      <point x="1248" y="-128" type="line" smooth="yes"/>
      <point x="1407" y="-128"/>
      <point x="1536" y="1"/>
      <point x="1536" y="160" type="curve" smooth="yes"/>
    </contour>
  </outline>
</glyph>
<glyph name="google_plus" format="1">
  <advance width="1664"/>
  <unicode hex="F0D5"/>
  <outline>
    <contour>
      <point x="876" y="71" type="curve" smooth="yes"/>
      <point x="876" y="-104"/>
      <point x="710" y="-164"/>
      <point x="561" y="-164" type="curve" smooth="yes"/>
      <point x="401" y="-164"/>
      <point x="185" y="-90"/>
      <point x="185" y="102" type="curve" smooth="yes"/>
      <point x="185" y="310"/>
      <point x="429" y="362"/>
      <point x="593" y="362" type="curve" smooth="yes"/>
      <point x="610" y="362"/>
      <point x="626" y="362"/>
      <point x="643" y="360" type="curve"/>
      <point x="745" y="289"/>
      <point x="876" y="211"/>
    </contour>
    <contour>
      <point x="756" y="933" type="curve" smooth="yes"/>
      <point x="756" y="811"/>
      <point x="709" y="712"/>
      <point x="572" y="712" type="curve" smooth="yes"/>
      <point x="394" y="712"/>
      <point x="294" y="950"/>
      <point x="294" y="1102" type="curve" smooth="yes"/>
      <point x="294" y="1220"/>
      <point x="358" y="1336"/>
      <point x="489" y="1336" type="curve" smooth="yes"/>
      <point x="674" y="1336"/>
      <point x="756" y="1085"/>
    </contour>
    <contour>
      <point x="625" y="1408" type="line" smooth="yes"/>
      <point x="562" y="1408"/>
      <point x="499" y="1401"/>
      <point x="438" y="1388" type="curve" smooth="yes"/>
      <point x="256" y="1348"/>
      <point x="109" y="1186"/>
      <point x="109" y="996" type="curve" smooth="yes"/>
      <point x="109" y="795"/>
      <point x="277" y="652"/>
      <point x="471" y="652" type="curve" smooth="yes"/>
      <point x="494" y="652"/>
      <point x="517" y="654"/>
      <point x="541" y="657" type="curve"/>
      <point x="531" y="626"/>
      <point x="519" y="604"/>
      <point x="519" y="571" type="curve" smooth="yes"/>
      <point x="519" y="515"/>
      <point x="550" y="465"/>
      <point x="583" y="422" type="curve"/>
      <point x="404" y="417"/>
      <point x="126" y="371"/>
      <point x="37" y="191" type="curve" smooth="yes"/>
      <point x="16" y="149"/>
      <point x="0" y="103"/>
      <point x="0" y="56" type="curve" smooth="yes"/>
      <point x="0" y="-176"/>
      <point x="270" y="-256"/>
      <point x="457" y="-256" type="curve" smooth="yes"/>
      <point x="605" y="-256"/>
      <point x="762" y="-224"/>
      <point x="877" y="-125" type="curve" smooth="yes"/>
      <point x="962" y="-51"/>
      <point x="1017" y="42"/>
      <point x="1017" y="157" type="curve" smooth="yes"/>
      <point x="1017" y="437"/>
      <point x="717" y="488"/>
      <point x="717" y="617" type="curve" smooth="yes"/>
      <point x="717" y="749"/>
      <point x="941" y="769"/>
      <point x="941" y="1034" type="curve" smooth="yes"/>
      <point x="941" y="1146"/>
      <point x="891" y="1267"/>
      <point x="792" y="1329" type="curve"/>
      <point x="927" y="1329" type="line"/>
      <point x="1062" y="1408" type="line"/>
    </contour>
    <contour>
      <point x="1664" y="1152" type="line"/>
      <point x="1408" y="1152" type="line"/>
      <point x="1408" y="1408" type="line"/>
      <point x="1280" y="1408" type="line"/>
      <point x="1280" y="1152" type="line"/>
      <point x="1024" y="1152" type="line"/>
      <point x="1024" y="1024" type="line"/>
      <point x="1280" y="1024" type="line"/>
      <point x="1280" y="768" type="line"/>
      <point x="1408" y="768" type="line"/>
      <point x="1408" y="1024" type="line"/>
      <point x="1664" y="1024" type="line"/>
    </contour>
  </outline>
</glyph>
<glyph name="file_text_alt" format="1">
  <advance width="1280"/>
  <unicode hex="F0F6"/>
  <outline>
    <contour>
      <point x="1024" y="352" type="line" smooth="yes"/>
      <point x="1024" y="370"/>
      <point x="1010" y="384"/>
      <point x="992" y="384" type="curve" smooth="yes"/>
      <point x="288" y="384" type="line" smooth="yes"/>
      <point x="270" y="384"/>
      <point x="256" y="370"/>
      <point x="256" y="352" type="curve" smooth="yes"/>
      <point x="256" y="288" type="line" smooth="yes"/>
      <point x="256" y="270"/>
      <point x="270" y="256"/>
      <point x="288" y="256" type="curve" smooth="yes"/>
      <point x="992" y="256" type="line" smooth="yes"/>
      <point x="1010" y="256"/>
      <point x="1024" y="270"/>
      <point x="1024" y="288" type="curve" smooth="yes"/>
    </contour>
    <contour>
      <point x="1024" y="608" type="line" smooth="yes"/>
      <point x="1024" y="626"/>
      <point x="1010" y="640"/>
      <point x="992" y="640" type="curve" smooth="yes"/>
      <point x="288" y="640" type="line" smooth="yes"/>
      <point x="270" y="640"/>
      <point x="256" y="626"/>
      <point x="256" y="608" type="curve" smooth="yes"/>
      <point x="256" y="544" type="line" smooth="yes"/>
      <point x="256" y="526"/>
      <point x="270" y="512"/>
      <point x="288" y="512" type="curve" smooth="yes"/>
      <point x="992" y="512" type="line" smooth="yes"/>
      <point x="1010" y="512"/>
      <point x="1024" y="526"/>
      <point x="1024" y="544" type="curve" smooth="yes"/>
    </contour>
    <contour>
      <point x="128" y="0" type="line"/>
      <point x="128" y="1280" type="line"/>
      <point x="640" y="1280" type="line"/>
      <point x="640" y="864" type="line" smooth="yes"/>
      <point x="640" y="811"/>
      <point x="683" y="768"/>
      <point x="736" y="768" type="curve" smooth="yes"/>
      <point x="1152" y="768" type="line"/>
      <point x="1152" y="0" type="line"/>
    </contour>
    <contour>
      <point x="768" y="896" type="line"/>
      <point x="768" y="1272" type="line"/>
      <point x="785" y="1266"/>
      <point x="802" y="1257"/>
      <point x="809" y="1250" type="curve" smooth="yes"/>
      <point x="1122" y="937" type="line" smooth="yes"/>
      <point x="1129" y="930"/>
      <point x="1138" y="913"/>
      <point x="1144" y="896" type="curve"/>
    </contour>
    <contour>
      <point x="1280" y="864" type="line" smooth="yes"/>
      <point x="1280" y="917"/>
      <point x="1249" y="991"/>
      <point x="1212" y="1028" type="curve" smooth="yes"/>
      <point x="900" y="1340" type="line" smooth="yes"/>
      <point x="863" y="1377"/>
      <point x="789" y="1408"/>
      <point x="736" y="1408" type="curve" smooth="yes"/>
      <point x="96" y="1408" type="line" smooth="yes"/>
      <point x="43" y="1408"/>
      <point x="0" y="1365"/>
      <point x="0" y="1312" type="curve" smooth="yes"/>
      <point x="0" y="-32" type="line" smooth="yes"/>
      <point x="0" y="-85"/>
      <point x="43" y="-128"/>
      <point x="96" y="-128" type="curve" smooth="yes"/>
      <point x="1184" y="-128" type="line" smooth="yes"/>
      <point x="1237" y="-128"/>
      <point x="1280" y="-85"/>
      <point x="1280" y="-32" type="curve" smooth="yes"/>
    </contour>
  </outline>
</glyph>
<glyph name="fighter_jet" format="1">
  <advance width="1920"/>
  <unicode hex="F0FB"/>
  <outline>
    <contour>
      <point x="1920" y="576" type="curve"/>
      <point x="1920" y="576"/>
      <point x="1920" y="608"/>
      <point x="1632" y="672" type="curve"/>
      <point x="1280" y="704" type="line"/>
      <point x="1056" y="768" type="line"/>
      <point x="992" y="768" type="line"/>
      <point x="699" y="1120" type="line"/>
      <point x="768" y="1120" type="line" smooth="yes"/>
      <point x="803" y="1120"/>
      <point x="832" y="1127"/>
      <point x="832" y="1136" type="curve" smooth="yes"/>
      <point x="832" y="1145"/>
      <point x="803" y="1152"/>
      <point x="768" y="1152" type="curve" smooth="yes"/>
      <point x="672" y="1152" type="line"/>
      <point x="512" y="1152" type="line"/>
      <point x="448" y="1152" type="line"/>
      <point x="448" y="1120" type="line"/>
      <point x="512" y="1120" type="line"/>
      <point x="512" y="704" type="line"/>
      <point x="352" y="704" type="line"/>
      <point x="160" y="928" type="line"/>
      <point x="64" y="928" type="line"/>
      <point x="32" y="896" type="line"/>
      <point x="32" y="704" type="line"/>
      <point x="64" y="704" type="line"/>
      <point x="64" y="672" type="line"/>
      <point x="192" y="672" type="line"/>
      <point x="192" y="664" type="line"/>
      <point x="0" y="640" type="line"/>
      <point x="0" y="512" type="line"/>
      <point x="192" y="488" type="line"/>
      <point x="192" y="480" type="line"/>
      <point x="64" y="480" type="line"/>
      <point x="64" y="448" type="line"/>
      <point x="32" y="448" type="line"/>
      <point x="32" y="256" type="line"/>
      <point x="64" y="224" type="line"/>
      <point x="160" y="224" type="line"/>
      <point x="352" y="448" type="line"/>
      <point x="512" y="448" type="line"/>
      <point x="512" y="32" type="line"/>
      <point x="448" y="32" type="line"/>
      <point x="448" y="0" type="line"/>
      <point x="512" y="0" type="line"/>
      <point x="672" y="0" type="line"/>
      <point x="768" y="0" type="line" smooth="yes"/>
      <point x="803" y="0"/>
      <point x="832" y="7"/>
      <point x="832" y="16" type="curve" smooth="yes"/>
      <point x="832" y="25"/>
      <point x="803" y="32"/>
      <point x="768" y="32" type="curve" smooth="yes"/>
      <point x="699" y="32" type="line"/>
      <point x="992" y="384" type="line"/>
      <point x="1056" y="384" type="line"/>
      <point x="1280" y="448" type="line"/>
      <point x="1632" y="480" type="line"/>
      <point x="1920" y="544"/>
      <point x="1920" y="576"/>
    </contour>
  </outline>
</glyph>
<glyph name="circle_blank" format="1">
  <advance width="1536"/>
  <unicode hex="F10C"/>
  <outline>
    <contour>
      <point x="768" y="1244" type="curve" smooth="yes"/>
      <point x="1068" y="1244"/>
      <point x="1372" y="940"/>
      <point x="1372" y="640" type="curve" smooth="yes"/>
      <point x="1372" y="340"/>
      <point x="1068" y="36"/>
      <point x="768" y="36" type="curve" smooth="yes"/>
      <point x="468" y="36"/>
      <point x="164" y="340"/>
      <point x="164" y="640" type="curve" smooth="yes"/>
      <point x="164" y="940"/>
      <point x="468" y="1244"/>
    </contour>
    <contour>
      <point x="1536" y="640" type="curve" smooth="yes"/>
      <point x="1536" y="1064"/>
      <point x="1192" y="1408"/>
      <point x="768" y="1408" type="curve"/>
      <point x="768" y="1408" type="line"/>
      <point x="344" y="1408"/>
      <point x="0" y="1064"/>
      <point x="0" y="640" type="curve" smooth="yes"/>
      <point x="0" y="216"/>
      <point x="344" y="-128"/>
      <point x="768" y="-128" type="curve" smooth="yes"/>
      <point x="1192" y="-128"/>
      <point x="1536" y="216"/>
    </contour>
  </outline>
</glyph>
<glyph name="spinner" format="1">
  <advance width="1568"/>
  <unicode hex="F110"/>
  <outline>
    <contour>
      <point x="496" y="192" type="curve" smooth="yes"/>
      <point x="496" y="272"/>
      <point x="431" y="336"/>
      <point x="352" y="336" type="curve" smooth="yes"/>
      <point x="272" y="336"/>
      <point x="208" y="272"/>
      <point x="208" y="192" type="curve" smooth="yes"/>
      <point x="208" y="112"/>
      <point x="272" y="48"/>
      <point x="352" y="48" type="curve" smooth="yes"/>
      <point x="431" y="48"/>
      <point x="496" y="112"/>
    </contour>
    <contour>
      <point x="928" y="0" type="curve" smooth="yes"/>
      <point x="928" y="71"/>
      <point x="871" y="128"/>
      <point x="800" y="128" type="curve" smooth="yes"/>
      <point x="729" y="128"/>
      <point x="672" y="71"/>
      <point x="672" y="0" type="curve" smooth="yes"/>
      <point x="672" y="-71"/>
      <point x="729" y="-128"/>
      <point x="800" y="-128" type="curve" smooth="yes"/>
      <point x="871" y="-128"/>
      <point x="928" y="-71"/>
    </contour>
    <contour>
      <point x="320" y="640" type="curve" smooth="yes"/>
      <point x="320" y="728"/>
      <point x="248" y="800"/>
      <point x="160" y="800" type="curve" smooth="yes"/>
      <point x="72" y="800"/>
      <point x="0" y="728"/>
      <point x="0" y="640" type="curve" smooth="yes"/>
      <point x="0" y="552"/>
      <point x="72" y="480"/>
      <point x="160" y="480" type="curve" smooth="yes"/>
      <point x="248" y="480"/>
      <point x="320" y="552"/>
    </contour>
    <contour>
      <point x="1360" y="192" type="curve" smooth="yes"/>
      <point x="1360" y="254"/>
      <point x="1310" y="304"/>
      <point x="1248" y="304" type="curve" smooth="yes"/>
      <point x="1186" y="304"/>
      <point x="1136" y="254"/>
      <point x="1136" y="192" type="curve" smooth="yes"/>
      <point x="1136" y="130"/>
      <point x="1186" y="80"/>
      <point x="1248" y="80" type="curve" smooth="yes"/>
      <point x="1310" y="80"/>
      <point x="1360" y="130"/>
    </contour>
    <contour>
      <point x="528" y="1088" type="curve" smooth="yes"/>
      <point x="528" y="1185"/>
      <point x="449" y="1264"/>
      <point x="352" y="1264" type="curve" smooth="yes"/>
      <point x="255" y="1264"/>
      <point x="176" y="1185"/>
      <point x="176" y="1088" type="curve" smooth="yes"/>
      <point x="176" y="991"/>
      <point x="255" y="912"/>
      <point x="352" y="912" type="curve" smooth="yes"/>
      <point x="449" y="912"/>
      <point x="528" y="991"/>
    </contour>
    <contour>
      <point x="992" y="1280" type="curve" smooth="yes"/>
      <point x="992" y="1386"/>
      <point x="906" y="1472"/>
      <point x="800" y="1472" type="curve" smooth="yes"/>
      <point x="694" y="1472"/>
      <point x="608" y="1386"/>
      <point x="608" y="1280" type="curve" smooth="yes"/>
      <point x="608" y="1174"/>
      <point x="694" y="1088"/>
      <point x="800" y="1088" type="curve" smooth="yes"/>
      <point x="906" y="1088"/>
      <point x="992" y="1174"/>
    </contour>
    <contour>
      <point x="1536" y="640" type="curve" smooth="yes"/>
      <point x="1536" y="693"/>
      <point x="1493" y="736"/>
      <point x="1440" y="736" type="curve" smooth="yes"/>
      <point x="1387" y="736"/>
      <point x="1344" y="693"/>
      <point x="1344" y="640" type="curve" smooth="yes"/>
      <point x="1344" y="587"/>
      <point x="1387" y="544"/>
      <point x="1440" y="544" type="curve" smooth="yes"/>
      <point x="1493" y="544"/>
      <point x="1536" y="587"/>
    </contour>
    <contour>
      <point x="1328" y="1088" type="curve" smooth="yes"/>
      <point x="1328" y="1132"/>
      <point x="1292" y="1168"/>
      <point x="1248" y="1168" type="curve" smooth="yes"/>
      <point x="1204" y="1168"/>
      <point x="1168" y="1132"/>
      <point x="1168" y="1088" type="curve" smooth="yes"/>
      <point x="1168" y="1044"/>
      <point x="1204" y="1008"/>
      <point x="1248" y="1008" type="curve" smooth="yes"/>
      <point x="1292" y="1008"/>
      <point x="1328" y="1044"/>
    </contour>
  </outline>
</glyph>
<glyph name="expand_alt" format="1">
  <advance width="1152"/>
  <unicode hex="F116"/>
  <outline>
    <contour>
      <point x="896" y="608" type="line" smooth="yes"/>
      <point x="896" y="626"/>
      <point x="882" y="640"/>
      <point x="864" y="640" type="curve" smooth="yes"/>
      <point x="640" y="640" type="line"/>
      <point x="640" y="864" type="line" smooth="yes"/>
      <point x="640" y="882"/>
      <point x="626" y="896"/>
      <point x="608" y="896" type="curve" smooth="yes"/>
      <point x="544" y="896" type="line" smooth="yes"/>
      <point x="526" y="896"/>
      <point x="512" y="882"/>
      <point x="512" y="864" type="curve" smooth="yes"/>
      <point x="512" y="640" type="line"/>
      <point x="288" y="640" type="line" smooth="yes"/>
      <point x="270" y="640"/>
      <point x="256" y="626"/>
      <point x="256" y="608" type="curve" smooth="yes"/>
      <point x="256" y="544" type="line" smooth="yes"/>
      <point x="256" y="526"/>
      <point x="270" y="512"/>
      <point x="288" y="512" type="curve" smooth="yes"/>
      <point x="512" y="512" type="line"/>
      <point x="512" y="288" type="line" smooth="yes"/>
      <point x="512" y="270"/>
      <point x="526" y="256"/>
      <point x="544" y="256" type="curve" smooth="yes"/>
      <point x="608" y="256" type="line" smooth="yes"/>
      <point x="626" y="256"/>
      <point x="640" y="270"/>
      <point x="640" y="288" type="curve" smooth="yes"/>
      <point x="640" y="512" type="line"/>
      <point x="864" y="512" type="line" smooth="yes"/>
      <point x="882" y="512"/>
      <point x="896" y="526"/>
      <point x="896" y="544" type="curve" smooth="yes"/>
    </contour>
    <contour>
      <point x="1024" y="224" type="line"/>
      <point x="1024" y="171"/>
      <point x="981" y="128"/>
      <point x="928" y="128" type="curve" smooth="yes"/>
      <point x="224" y="128" type="line" smooth="yes"/>
      <point x="171" y="128"/>
      <point x="128" y="171"/>
      <point x="128" y="224" type="curve" smooth="yes"/>
      <point x="128" y="928" type="line" smooth="yes"/>
      <point x="128" y="981"/>
      <point x="171" y="1024"/>
      <point x="224" y="1024" type="curve" smooth="yes"/>
      <point x="928" y="1024" type="line" smooth="yes"/>
      <point x="981" y="1024"/>
      <point x="1024" y="981"/>
      <point x="1024" y="928" type="curve" smooth="yes"/>
    </contour>
    <contour>
      <point x="1152" y="928" type="line" smooth="yes"/>
      <point x="1152" y="1052"/>
      <point x="1052" y="1152"/>
      <point x="928" y="1152" type="curve" smooth="yes"/>
      <point x="224" y="1152" type="line" smooth="yes"/>
      <point x="100" y="1152"/>
      <point x="0" y="1052"/>
      <point x="0" y="928" type="curve" smooth="yes"/>
      <point x="0" y="224" type="line" smooth="yes"/>
      <point x="0" y="101"/>
      <point x="100" y="0"/>
      <point x="224" y="0" type="curve" smooth="yes"/>
      <point x="928" y="0" type="line" smooth="yes"/>
      <point x="1052" y="0"/>
      <point x="1152" y="101"/>
      <point x="1152" y="224" type="curve" smooth="yes"/>
    </contour>
  </outline>
</glyph>
<glyph name="collapse_alt" format="1">
  <advance width="1152"/>
  <unicode hex="F117"/>
  <outline>
    <contour>
      <point x="928" y="1152" type="curve"/>
      <point x="224" y="1152" type="line" smooth="yes"/>
      <point x="100" y="1152"/>
      <point x="0" y="1052"/>
      <point x="0" y="928" type="curve" smooth="yes"/>
      <point x="0" y="224" type="line" smooth="yes"/>
      <point x="0" y="101"/>
      <point x="100" y="0"/>
      <point x="224" y="0" type="curve" smooth="yes"/>
      <point x="928" y="0" type="line" smooth="yes"/>
      <point x="1052" y="0"/>
      <point x="1152" y="101"/>
      <point x="1152" y="224" type="curve" smooth="yes"/>
      <point x="1152" y="928" type="line" smooth="yes"/>
      <point x="1152" y="1052"/>
      <point x="1052" y="1152"/>
    </contour>
    <contour>
      <point x="1024" y="224" type="line" smooth="yes"/>
      <point x="1024" y="171"/>
      <point x="981" y="128"/>
      <point x="928" y="128" type="curve" smooth="yes"/>
      <point x="224" y="128" type="line" smooth="yes"/>
      <point x="171" y="128"/>
      <point x="128" y="171"/>
      <point x="128" y="224" type="curve" smooth="yes"/>
      <point x="128" y="928" type="line" smooth="yes"/>
      <point x="128" y="981"/>
      <point x="171" y="1024"/>
      <point x="224" y="1024" type="curve" smooth="yes"/>
      <point x="928" y="1024" type="line" smooth="yes"/>
      <point x="981" y="1024"/>
      <point x="1024" y="981"/>
      <point x="1024" y="928" type="curve" smooth="yes"/>
    </contour>
    <contour>
      <point x="864" y="640" type="curve"/>
      <point x="288" y="640" type="line" smooth="yes"/>
      <point x="270" y="640"/>
      <point x="256" y="626"/>
      <point x="256" y="608" type="curve" smooth="yes"/>
      <point x="256" y="544" type="line" smooth="yes"/>
      <point x="256" y="526"/>
      <point x="270" y="512"/>
      <point x="288" y="512" type="curve" smooth="yes"/>
      <point x="864" y="512" type="line" smooth="yes"/>
      <point x="882" y="512"/>
      <point x="896" y="526"/>
      <point x="896" y="544" type="curve" smooth="yes"/>
      <point x="896" y="608" type="line" smooth="yes"/>
      <point x="896" y="626"/>
      <point x="882" y="640"/>
    </contour>
  </outline>
</glyph>
<glyph name="maxcdn" format="1">
  <advance width="1792"/>
  <unicode hex="F136"/>
  <outline>
    <contour>
      <point x="1708" y="881" type="line"/>
      <point x="1731" y="991"/>
      <point x="1714" y="1084"/>
      <point x="1656" y="1162" type="curve" smooth="yes"/>
      <point x="1598" y="1240"/>
      <point x="1516" y="1280"/>
      <point x="1411" y="1280" type="curve" smooth="yes"/>
      <point x="272" y="1280" type="line"/>
      <point x="0" y="0" type="line"/>
      <point x="304" y="0" type="line"/>
      <point x="509" y="960" type="line"/>
      <point x="813" y="960" type="line"/>
      <point x="609" y="0" type="line"/>
      <point x="912" y="0" type="line"/>
      <point x="1117" y="960" type="line"/>
      <point x="1314" y="960" type="line" smooth="yes"/>
      <point x="1329" y="960"/>
      <point x="1342" y="957"/>
      <point x="1354" y="951" type="curve" smooth="yes"/>
      <point x="1365" y="945"/>
      <point x="1375" y="937"/>
      <point x="1382" y="927" type="curve" smooth="yes"/>
      <point x="1390" y="917"/>
      <point x="1395" y="906"/>
      <point x="1398" y="892" type="curve" smooth="yes"/>
      <point x="1400" y="878"/>
      <point x="1400" y="864"/>
      <point x="1397" y="849" type="curve" smooth="yes"/>
      <point x="1216" y="0" type="line"/>
      <point x="1520" y="0" type="line"/>
    </contour>
  </outline>
</glyph>
<glyph name="css3" format="1">
  <advance width="1792"/>
  <unicode hex="F13C"/>
  <outline>
    <contour>
      <point x="275" y="1408" type="line"/>
      <point x="216" y="1111" type="line"/>
      <point x="1424" y="1111" type="line"/>
      <point x="1386" y="920" type="line"/>
      <point x="177" y="920" type="line"/>
      <point x="119" y="623" type="line"/>
      <point x="1327" y="623" type="line"/>
      <point x="1259" y="284" type="line"/>
      <point x="773" y="123" type="line"/>
      <point x="351" y="284" type="line"/>
      <point x="380" y="431" type="line"/>
      <point x="83" y="431" type="line"/>
      <point x="12" y="75" type="line"/>
      <point x="710" y="-192" type="line"/>
      <point x="1514" y="75" type="line"/>
      <point x="1780" y="1408" type="line"/>
    </contour>
  </outline>
</glyph>
<glyph name="cny" format="1">
  <advance width="1664"/>
  <unicode hex="F158"/>
  <outline>
    <contour>
      <point x="1664" y="352" type="line" smooth="yes"/>
      <point x="1664" y="370"/>
      <point x="1650" y="384"/>
      <point x="1632" y="384" type="curve" smooth="yes"/>
      <point x="1440" y="384" type="line" smooth="yes"/>
      <point x="1422" y="384"/>
      <point x="1408" y="370"/>
      <point x="1408" y="352" type="curve" smooth="yes"/>
      <point x="1408" y="288" type="line" smooth="yes"/>
      <point x="1408" y="253"/>
      <point x="1379" y="224"/>
      <point x="1344" y="224" type="curve" smooth="yes"/>
      <point x="1216" y="224" type="line" smooth="yes"/>
      <point x="1181" y="224"/>
      <point x="1152" y="253"/>
      <point x="1152" y="288" type="curve" smooth="yes"/>
      <point x="1152" y="800" type="line"/>
      <point x="1376" y="800" type="line" smooth="yes"/>
      <point x="1394" y="800"/>
      <point x="1408" y="814"/>
      <point x="1408" y="832" type="curve" smooth="yes"/>
      <point x="1408" y="992" type="line" smooth="yes"/>
      <point x="1408" y="1010"/>
      <point x="1394" y="1024"/>
      <point x="1376" y="1024" type="curve" smooth="yes"/>
      <point x="160" y="1024" type="line" smooth="yes"/>
      <point x="142" y="1024"/>
      <point x="128" y="1010"/>
      <point x="128" y="992" type="curve" smooth="yes"/>
      <point x="128" y="832" type="line" smooth="yes"/>
      <point x="128" y="814"/>
      <point x="142" y="800"/>
      <point x="160" y="800" type="curve" smooth="yes"/>
      <point x="416" y="800" type="line"/>
      <point x="408" y="352"/>
      <point x="237" y="287"/>
      <point x="86" y="229" type="curve" smooth="yes"/>
      <point x="73" y="224"/>
      <point x="60" y="220"/>
      <point x="48" y="215" type="curve" smooth="yes"/>
      <point x="32" y="208"/>
      <point x="24" y="190"/>
      <point x="31" y="173" type="curve" smooth="yes"/>
      <point x="102" y="-5" type="line" smooth="yes"/>
      <point x="107" y="-18"/>
      <point x="119" y="-25"/>
      <point x="132" y="-25" type="curve" smooth="yes"/>
      <point x="136" y="-25"/>
      <point x="140" y="-24"/>
      <point x="144" y="-23" type="curve" smooth="yes"/>
      <point x="154" y="-19"/>
      <point x="165" y="-15"/>
      <point x="176" y="-10" type="curve"/>
      <point x="359" y="59"/>
      <point x="661" y="174"/>
      <point x="672" y="800" type="curve"/>
      <point x="896" y="800" type="line"/>
      <point x="896" y="320" type="line" smooth="yes"/>
      <point x="896" y="144"/>
      <point x="1040" y="0"/>
      <point x="1216" y="0" type="curve" smooth="yes"/>
      <point x="1344" y="0" type="line" smooth="yes"/>
      <point x="1520" y="0"/>
      <point x="1664" y="144"/>
      <point x="1664" y="320" type="curve" smooth="yes"/>
    </contour>
    <contour>
      <point x="1280" y="1376" type="line" smooth="yes"/>
      <point x="1280" y="1394"/>
      <point x="1266" y="1408"/>
      <point x="1248" y="1408" type="curve" smooth="yes"/>
      <point x="288" y="1408" type="line" smooth="yes"/>
      <point x="270" y="1408"/>
      <point x="256" y="1394"/>
      <point x="256" y="1376" type="curve" smooth="yes"/>
      <point x="256" y="1216" type="line" smooth="yes"/>
      <point x="256" y="1198"/>
      <point x="270" y="1184"/>
      <point x="288" y="1184" type="curve" smooth="yes"/>
      <point x="1248" y="1184" type="line" smooth="yes"/>
      <point x="1266" y="1184"/>
      <point x="1280" y="1198"/>
      <point x="1280" y="1216" type="curve" smooth="yes"/>
    </contour>
  </outline>
</glyph>
<glyph name="file" format="1">
  <advance width="1280"/>
  <unicode hex="F15B"/>
  <outline>
    <contour>
      <point x="1280" y="768" type="line"/>
      <point x="736" y="768" type="line" smooth="yes"/>
      <point x="683" y="768"/>
      <point x="640" y="811"/>
      <point x="640" y="864" type="curve" smooth="yes"/>
      <point x="640" y="1408" type="line"/>
      <point x="96" y="1408" type="line" smooth="yes"/>
      <point x="43" y="1408"/>
      <point x="0" y="1365"/>
      <point x="0" y="1312" type="curve" smooth="yes"/>
      <point x="0" y="-32" type="line" smooth="yes"/>
      <point x="0" y="-85"/>
      <point x="43" y="-128"/>
      <point x="96" y="-128" type="curve" smooth="yes"/>
      <point x="1184" y="-128" type="line" smooth="yes"/>
      <point x="1237" y="-128"/>
      <point x="1280" y="-85"/>
      <point x="1280" y="-32" type="curve" smooth="yes"/>
    </contour>
    <contour>
      <point x="1277" y="896" type="line"/>
      <point x="1268" y="944"/>
      <point x="1242" y="998"/>
      <point x="1212" y="1028" type="curve" smooth="yes"/>
      <point x="900" y="1340" type="line" smooth="yes"/>
      <point x="870" y="1370"/>
      <point x="816" y="1396"/>
      <point x="768" y="1405" type="curve"/>
      <point x="768" y="896" type="line"/>
    </contour>
  </outline>
</glyph>
<glyph name="file_text" format="1">
  <advance width="1280"/>
  <unicode hex="F15C"/>
  <outline>
    <contour>
      <point x="1024" y="160" type="line"/>
      <point x="1024" y="142"/>
      <point x="1010" y="128"/>
      <point x="992" y="128" type="curve" smooth="yes"/>
      <point x="288" y="128" type="line" smooth="yes"/>
      <point x="270" y="128"/>
      <point x="256" y="142"/>
      <point x="256" y="160" type="curve" smooth="yes"/>
      <point x="256" y="224" type="line" smooth="yes"/>
      <point x="256" y="242"/>
      <point x="270" y="256"/>
      <point x="288" y="256" type="curve" smooth="yes"/>
      <point x="992" y="256" type="line" smooth="yes"/>
      <point x="1010" y="256"/>
      <point x="1024" y="242"/>
      <point x="1024" y="224" type="curve" smooth="yes"/>
    </contour>
    <contour>
      <point x="1024" y="416" type="line"/>
      <point x="1024" y="398"/>
      <point x="1010" y="384"/>
      <point x="992" y="384" type="curve" smooth="yes"/>
      <point x="288" y="384" type="line" smooth="yes"/>
      <point x="270" y="384"/>
      <point x="256" y="398"/>
      <point x="256" y="416" type="curve" smooth="yes"/>
      <point x="256" y="480" type="line" smooth="yes"/>
      <point x="256" y="498"/>
      <point x="270" y="512"/>
      <point x="288" y="512" type="curve" smooth="yes"/>
      <point x="992" y="512" type="line" smooth="yes"/>
      <point x="1010" y="512"/>
      <point x="1024" y="498"/>
      <point x="1024" y="480" type="curve" smooth="yes"/>
    </contour>
    <contour>
      <point x="1280" y="768" type="line"/>
      <point x="736" y="768" type="line" smooth="yes"/>
      <point x="683" y="768"/>
      <point x="640" y="811"/>
      <point x="640" y="864" type="curve" smooth="yes"/>
      <point x="640" y="1408" type="line"/>
      <point x="96" y="1408" type="line" smooth="yes"/>
      <point x="43" y="1408"/>
      <point x="0" y="1365"/>
      <point x="0" y="1312" type="curve" smooth="yes"/>
      <point x="0" y="-32" type="line" smooth="yes"/>
      <point x="0" y="-85"/>
      <point x="43" y="-128"/>
      <point x="96" y="-128" type="curve" smooth="yes"/>
      <point x="1184" y="-128" type="line" smooth="yes"/>
      <point x="1237" y="-128"/>
      <point x="1280" y="-85"/>
      <point x="1280" y="-32" type="curve" smooth="yes"/>
    </contour>
    <contour>
      <point x="1277" y="896" type="line"/>
      <point x="1268" y="944"/>
      <point x="1242" y="998"/>
      <point x="1212" y="1028" type="curve" smooth="yes"/>
      <point x="900" y="1340" type="line" smooth="yes"/>
      <point x="870" y="1370"/>
      <point x="816" y="1396"/>
      <point x="768" y="1405" type="curve"/>
      <point x="768" y="896" type="line"/>
    </contour>
  </outline>
</glyph>
<glyph name="youtube_play" format="1">
  <advance width="1792"/>
  <unicode hex="F16A"/>
  <outline>
    <contour>
      <point x="1280" y="640" type="curve" smooth="yes"/>
      <point x="1280" y="618"/>
      <point x="1269" y="597"/>
      <point x="1250" y="586" type="curve"/>
      <point x="738" y="266" type="line" smooth="yes"/>
      <point x="728" y="259"/>
      <point x="716" y="256"/>
      <point x="704" y="256" type="curve" smooth="yes"/>
      <point x="693" y="256"/>
      <point x="683" y="259"/>
      <point x="673" y="264" type="curve" smooth="yes"/>
      <point x="653" y="275"/>
      <point x="640" y="297"/>
      <point x="640" y="320" type="curve" smooth="yes"/>
      <point x="640" y="960" type="line" smooth="yes"/>
      <point x="640" y="983"/>
      <point x="653" y="1005"/>
      <point x="673" y="1016" type="curve" smooth="yes"/>
      <point x="693" y="1027"/>
      <point x="718" y="1027"/>
      <point x="738" y="1014" type="curve" smooth="yes"/>
      <point x="1250" y="694" type="line"/>
      <point x="1269" y="683"/>
      <point x="1280" y="662"/>
    </contour>
    <contour>
      <point x="1792" y="640" type="curve" smooth="yes"/>
      <point x="1792" y="783"/>
      <point x="1792" y="935"/>
      <point x="1761" y="1074" type="curve" smooth="yes"/>
      <point x="1739" y="1172"/>
      <point x="1661" y="1244"/>
      <point x="1567" y="1255" type="curve" smooth="yes"/>
      <point x="1345" y="1280"/>
      <point x="1120" y="1280"/>
      <point x="896" y="1280" type="curve" smooth="yes"/>
      <point x="672" y="1280"/>
      <point x="447" y="1280"/>
      <point x="225" y="1255" type="curve" smooth="yes"/>
      <point x="131" y="1244"/>
      <point x="54" y="1172"/>
      <point x="32" y="1074" type="curve" smooth="yes"/>
      <point x="0" y="935"/>
      <point x="0" y="783"/>
      <point x="0" y="640" type="curve" smooth="yes"/>
      <point x="0" y="497"/>
      <point x="0" y="345"/>
      <point x="31" y="206" type="curve" smooth="yes"/>
      <point x="53" y="108"/>
      <point x="131" y="36"/>
      <point x="225" y="25" type="curve" smooth="yes"/>
      <point x="447" y="0"/>
      <point x="672" y="0"/>
      <point x="896" y="0" type="curve" smooth="yes"/>
      <point x="1120" y="0"/>
      <point x="1345" y="0"/>
      <point x="1567" y="25" type="curve" smooth="yes"/>
      <point x="1661" y="36"/>
      <point x="1739" y="108"/>
      <point x="1760" y="206" type="curve"/>
      <point x="1792" y="345"/>
      <point x="1792" y="497"/>
    </contour>
  </outline>
</glyph>
<glyph name="stackexchange" format="1">
  <advance width="1408"/>
  <unicode hex="F16C"/>
  <outline>
    <contour>
      <point x="928" y="135" type="line"/>
      <point x="221" y="134" type="line"/>
      <point x="221" y="-17" type="line"/>
      <point x="928" y="-16" type="line"/>
    </contour>
    <contour>
      <point x="1169" y="481" type="line"/>
      <point x="1049" y="481" type="line"/>
      <point x="1049" y="-137" type="line"/>
      <point x="121" y="-137" type="line"/>
      <point x="121" y="481" type="line"/>
      <point x="0" y="481" type="line"/>
      <point x="0" y="-255" type="line"/>
      <point x="1" y="-255" type="line"/>
      <point x="1" y="-255"/>
      <point x="1" y="-256"/>
      <point x="36" y="-256" type="curve" smooth="yes"/>
      <point x="1168" y="-256" type="line"/>
      <point x="1168" y="-255" type="line"/>
      <point x="1168" y="-255"/>
      <point x="1169" y="-255"/>
      <point x="1169" y="-220" type="curve" smooth="yes"/>
    </contour>
    <contour>
      <point x="241" y="393" type="line"/>
      <point x="227" y="243" type="line"/>
      <point x="932" y="178" type="line"/>
      <point x="945" y="328" type="line"/>
    </contour>
    <contour>
      <point x="309" y="709" type="line"/>
      <point x="270" y="563" type="line"/>
      <point x="953" y="380" type="line"/>
      <point x="992" y="526" type="line"/>
    </contour>
    <contour>
      <point x="472" y="1058" type="line"/>
      <point x="395" y="928" type="line"/>
      <point x="1004" y="568" type="line"/>
      <point x="1081" y="698" type="line"/>
    </contour>
    <contour>
      <point x="832" y="1389" type="line"/>
      <point x="707" y="1303" type="line"/>
      <point x="1106" y="719" type="line"/>
      <point x="1230" y="804" type="line"/>
    </contour>
    <contour>
      <point x="1285" y="1536" type="line"/>
      <point x="1136" y="1510" type="line"/>
      <point x="1257" y="813" type="line"/>
      <point x="1406" y="839" type="line"/>
    </contour>
  </outline>
</glyph>
<glyph name="instagram" format="1">
  <advance width="1536"/>
  <unicode hex="F16D"/>
  <outline>
    <contour>
      <point x="1362" y="110" type="line"/>
      <point x="1362" y="76"/>
      <point x="1335" y="49"/>
      <point x="1301" y="49" type="curve" smooth="yes"/>
      <point x="232" y="49" type="line" smooth="yes"/>
      <point x="198" y="49"/>
      <point x="171" y="76"/>
      <point x="171" y="110" type="curve" smooth="yes"/>
      <point x="171" y="758" type="line"/>
      <point x="312" y="758" type="line"/>
      <point x="299" y="717"/>
      <point x="292" y="672"/>
      <point x="292" y="627" type="curve" smooth="yes"/>
      <point x="292" y="371"/>
      <point x="506" y="164"/>
      <point x="769" y="164" type="curve" smooth="yes"/>
      <point x="1033" y="164"/>
      <point x="1247" y="371"/>
      <point x="1247" y="627" type="curve" smooth="yes"/>
      <point x="1247" y="672"/>
      <point x="1240" y="717"/>
      <point x="1227" y="758" type="curve"/>
      <point x="1362" y="758" type="line"/>
      <point x="1362" y="758" type="line"/>
    </contour>
    <contour>
      <point x="1078" y="643" type="curve" smooth="yes"/>
      <point x="1078" y="478"/>
      <point x="940" y="344"/>
      <point x="769" y="344" type="curve" smooth="yes"/>
      <point x="599" y="344"/>
      <point x="461" y="478"/>
      <point x="461" y="643" type="curve" smooth="yes"/>
      <point x="461" y="808"/>
      <point x="599" y="942"/>
      <point x="769" y="942" type="curve" smooth="yes"/>
      <point x="940" y="942"/>
      <point x="1078" y="808"/>
    </contour>
    <contour>
      <point x="1362" y="1003" type="line"/>
      <point x="1362" y="965"/>
      <point x="1331" y="934"/>
      <point x="1293" y="934" type="curve" smooth="yes"/>
      <point x="1119" y="934" type="line" smooth="yes"/>
      <point x="1081" y="934"/>
      <point x="1050" y="965"/>
      <point x="1050" y="1003" type="curve" smooth="yes"/>
      <point x="1050" y="1168" type="line" smooth="yes"/>
      <point x="1050" y="1206"/>
      <point x="1081" y="1237"/>
      <point x="1119" y="1237" type="curve"/>
      <point x="1119" y="1237" type="line"/>
      <point x="1293" y="1237" type="line" smooth="yes"/>
      <point x="1331" y="1237"/>
      <point x="1362" y="1206"/>
      <point x="1362" y="1168" type="curve" smooth="yes"/>
    </contour>
    <contour>
      <point x="1536" y="1211" type="line" smooth="yes"/>
      <point x="1536" y="1319"/>
      <point x="1447" y="1408"/>
      <point x="1339" y="1408" type="curve" smooth="yes"/>
      <point x="197" y="1408" type="line"/>
      <point x="197" y="1408" type="line"/>
      <point x="89" y="1408"/>
      <point x="0" y="1319"/>
      <point x="0" y="1211" type="curve" smooth="yes"/>
      <point x="0" y="69" type="line" smooth="yes"/>
      <point x="0" y="-39"/>
      <point x="89" y="-128"/>
      <point x="197" y="-128" type="curve" smooth="yes"/>
      <point x="1339" y="-128" type="line" smooth="yes"/>
      <point x="1447" y="-128"/>
      <point x="1536" y="-39"/>
      <point x="1536" y="69" type="curve" smooth="yes"/>
    </contour>
  </outline>
</glyph>
<glyph name="adn" format="1">
  <advance width="1536"/>
  <unicode hex="F170"/>
  <outline>
    <contour>
      <point x="768" y="914" type="line"/>
      <point x="567" y="608" type="line"/>
      <point x="969" y="608" type="line"/>
    </contour>
    <contour>
      <point x="1133" y="384" type="line"/>
      <point x="1029" y="544" type="line"/>
      <point x="507" y="544" type="line"/>
      <point x="403" y="384" type="line"/>
      <point x="309" y="384" type="line"/>
      <point x="768" y="1075" type="line"/>
      <point x="1227" y="384" type="line"/>
    </contour>
    <contour>
      <point x="1536" y="640" type="curve" smooth="yes"/>
      <point x="1536" y="1064"/>
      <point x="1192" y="1408"/>
      <point x="768" y="1408" type="curve" smooth="yes"/>
      <point x="344" y="1408"/>
      <point x="0" y="1064"/>
      <point x="0" y="640" type="curve" smooth="yes"/>
      <point x="0" y="216"/>
      <point x="344" y="-128"/>
      <point x="768" y="-128" type="curve" smooth="yes"/>
      <point x="1192" y="-128"/>
      <point x="1536" y="216"/>
    </contour>
  </outline>
</glyph>
<glyph name="tumblr" format="1">
  <advance width="1024"/>
  <unicode hex="F173"/>
  <outline>
    <contour>
      <point x="390" y="1408" type="line"/>
      <point x="380" y="1329"/>
      <point x="362" y="1264"/>
      <point x="336" y="1212" type="curve" smooth="yes"/>
      <point x="310" y="1161"/>
      <point x="276" y="1117"/>
      <point x="233" y="1080" type="curve" smooth="yes"/>
      <point x="190" y="1044"/>
      <point x="138" y="1016"/>
      <point x="78" y="996" type="curve"/>
      <point x="78" y="779" type="line"/>
      <point x="248" y="779" type="line"/>
      <point x="248" y="240" type="line" smooth="yes"/>
      <point x="248" y="170"/>
      <point x="255" y="116"/>
      <point x="270" y="79" type="curve" smooth="yes"/>
      <point x="284" y="42"/>
      <point x="311" y="7"/>
      <point x="349" y="-26" type="curve" smooth="yes"/>
      <point x="387" y="-58"/>
      <point x="433" y="-84"/>
      <point x="487" y="-101" type="curve" smooth="yes"/>
      <point x="541" y="-119"/>
      <point x="603" y="-128"/>
      <point x="673" y="-128" type="curve" smooth="yes"/>
      <point x="735" y="-128"/>
      <point x="793" y="-122"/>
      <point x="846" y="-109" type="curve" smooth="yes"/>
      <point x="899" y="-97"/>
      <point x="958" y="-75"/>
      <point x="1024" y="-44" type="curve"/>
      <point x="1024" y="198" type="line"/>
      <point x="947" y="147"/>
      <point x="870" y="122"/>
      <point x="792" y="122" type="curve" smooth="yes"/>
      <point x="748" y="122"/>
      <point x="709" y="132"/>
      <point x="675" y="153" type="curve" smooth="yes"/>
      <point x="650" y="168"/>
      <point x="632" y="188"/>
      <point x="623" y="213" type="curve" smooth="yes"/>
      <point x="613" y="239"/>
      <point x="609" y="296"/>
      <point x="609" y="385" type="curve" smooth="yes"/>
      <point x="609" y="779" type="line"/>
      <point x="973" y="779" type="line"/>
      <point x="973" y="1020" type="line"/>
      <point x="609" y="1020" type="line"/>
      <point x="609" y="1408" type="line"/>
    </contour>
  </outline>
</glyph>
<glyph name="tumblr_sign" format="1">
  <advance width="1536"/>
  <unicode hex="F174"/>
  <outline>
    <contour>
      <point x="1123" y="127" type="line"/>
      <point x="1074" y="104"/>
      <point x="1029" y="87"/>
      <point x="989" y="78" type="curve" smooth="yes"/>
      <point x="949" y="69"/>
      <point x="906" y="64"/>
      <point x="860" y="64" type="curve" smooth="yes"/>
      <point x="807" y="64"/>
      <point x="760" y="71"/>
      <point x="720" y="84" type="curve" smooth="yes"/>
      <point x="680" y="97"/>
      <point x="645" y="116"/>
      <point x="616" y="141" type="curve" smooth="yes"/>
      <point x="588" y="165"/>
      <point x="568" y="192"/>
      <point x="557" y="219" type="curve" smooth="yes"/>
      <point x="546" y="247"/>
      <point x="540" y="287"/>
      <point x="540" y="340" type="curve" smooth="yes"/>
      <point x="540" y="744" type="line"/>
      <point x="413" y="744" type="line"/>
      <point x="413" y="907" type="line"/>
      <point x="458" y="922"/>
      <point x="497" y="943"/>
      <point x="529" y="970" type="curve" smooth="yes"/>
      <point x="562" y="998"/>
      <point x="588" y="1031"/>
      <point x="607" y="1069" type="curve" smooth="yes"/>
      <point x="627" y="1108"/>
      <point x="640" y="1157"/>
      <point x="647" y="1216" type="curve"/>
      <point x="811" y="1216" type="line"/>
      <point x="811" y="925" type="line"/>
      <point x="1085" y="925" type="line"/>
      <point x="1085" y="744" type="line"/>
      <point x="811" y="744" type="line"/>
      <point x="811" y="449" type="line" smooth="yes"/>
      <point x="811" y="382"/>
      <point x="815" y="339"/>
      <point x="822" y="320" type="curve" smooth="yes"/>
      <point x="829" y="301"/>
      <point x="842" y="286"/>
      <point x="861" y="275" type="curve" smooth="yes"/>
      <point x="887" y="259"/>
      <point x="916" y="252"/>
      <point x="949" y="252" type="curve" smooth="yes"/>
      <point x="1007" y="252"/>
      <point x="1065" y="271"/>
      <point x="1123" y="308" type="curve"/>
    </contour>
    <contour>
      <point x="1536" y="1120" type="line" smooth="yes"/>
      <point x="1536" y="1279"/>
      <point x="1407" y="1408"/>
      <point x="1248" y="1408" type="curve" smooth="yes"/>
      <point x="288" y="1408" type="line" smooth="yes"/>
      <point x="129" y="1408"/>
      <point x="0" y="1279"/>
      <point x="0" y="1120" type="curve" smooth="yes"/>
      <point x="0" y="160" type="line" smooth="yes"/>
      <point x="0" y="1"/>
      <point x="129" y="-128"/>
      <point x="288" y="-128" type="curve" smooth="yes"/>
      <point x="1248" y="-128" type="line" smooth="yes"/>
      <point x="1407" y="-128"/>
      <point x="1536" y="1"/>
      <point x="1536" y="160" type="curve" smooth="yes"/>
    </contour>
  </outline>
</glyph>
<glyph name="windows" format="1">
  <advance width="1664"/>
  <unicode hex="F17A"/>
  <outline>
    <contour>
      <point x="682" y="530" type="line"/>
      <point x="682" y="530" type="line"/>
      <point x="0" y="530" type="line"/>
      <point x="0" y="-27" type="line"/>
      <point x="682" y="-121" type="line"/>
    </contour>
    <contour>
      <point x="682" y="1273" type="line"/>
      <point x="0" y="1179" type="line"/>
      <point x="0" y="614" type="line"/>
      <point x="682" y="614" type="line"/>
    </contour>
    <contour>
      <point x="1664" y="530" type="line"/>
      <point x="757" y="530" type="line"/>
      <point x="757" y="-131" type="line"/>
      <point x="1664" y="-256" type="line"/>
    </contour>
    <contour>
      <point x="1664" y="1408" type="line"/>
      <point x="757" y="1283" type="line"/>
      <point x="757" y="614" type="line"/>
      <point x="1664" y="614" type="line"/>
    </contour>
  </outline>
</glyph>
<glyph name="foursquare" format="1">
  <advance width="1664"/>
  <unicode hex="F180"/>
  <outline>
    <contour>
      <point x="1483" y="512" type="line"/>
      <point x="1554" y="583"/>
      <point x="1554" y="697"/>
      <point x="1483" y="768" type="curve" smooth="yes"/>
      <point x="1481" y="771" type="line"/>
      <point x="862" y="152" type="line" smooth="yes"/>
      <point x="836" y="125"/>
      <point x="800" y="111"/>
      <point x="763" y="111" type="curve" smooth="yes"/>
      <point x="735" y="111" type="line"/>
      <point x="729" y="115" type="line"/>
      <point x="704" y="121"/>
      <point x="681" y="134"/>
      <point x="662" y="152" type="curve"/>
      <point x="256" y="560" type="line" smooth="yes"/>
      <point x="229" y="587"/>
      <point x="214" y="622"/>
      <point x="214" y="660" type="curve" smooth="yes"/>
      <point x="214" y="697"/>
      <point x="229" y="733"/>
      <point x="256" y="759" type="curve"/>
      <point x="376" y="880" type="line" smooth="yes"/>
      <point x="402" y="906"/>
      <point x="438" y="921"/>
      <point x="476" y="921" type="curve" smooth="yes"/>
      <point x="513" y="921"/>
      <point x="549" y="905"/>
      <point x="575" y="879" type="curve" smooth="yes"/>
      <point x="763" y="691" type="line"/>
      <point x="1161" y="1090" type="line"/>
      <point x="896" y="1355" type="line" smooth="yes"/>
      <point x="825" y="1426"/>
      <point x="711" y="1426"/>
      <point x="640" y="1355" type="curve" smooth="yes"/>
      <point x="53" y="768" type="line" smooth="yes"/>
      <point x="-18" y="697"/>
      <point x="-18" y="583"/>
      <point x="53" y="512" type="curve" smooth="yes"/>
      <point x="640" y="-75" type="line" smooth="yes"/>
      <point x="711" y="-146"/>
      <point x="826" y="-146"/>
      <point x="896" y="-75" type="curve" smooth="yes"/>
    </contour>
    <contour>
      <point x="1406" y="1138" type="line" smooth="yes"/>
      <point x="1396" y="1148"/>
      <point x="1383" y="1153"/>
      <point x="1370" y="1153" type="curve" smooth="yes"/>
      <point x="1356" y="1153"/>
      <point x="1344" y="1148"/>
      <point x="1334" y="1138" type="curve" smooth="yes"/>
      <point x="760" y="563" type="line"/>
      <point x="508" y="815" type="line" smooth="yes"/>
      <point x="499" y="825"/>
      <point x="486" y="830"/>
      <point x="472" y="830" type="curve" smooth="yes"/>
      <point x="459" y="830"/>
      <point x="446" y="825"/>
      <point x="437" y="815" type="curve"/>
      <point x="316" y="695" type="line" smooth="yes"/>
      <point x="297" y="676"/>
      <point x="297" y="644"/>
      <point x="316" y="624" type="curve" smooth="yes"/>
      <point x="723" y="216" type="line" smooth="yes"/>
      <point x="731" y="208"/>
      <point x="742" y="203"/>
      <point x="753" y="202" type="curve"/>
      <point x="755" y="201"/>
      <point x="757" y="201"/>
      <point x="759" y="201" type="curve" smooth="yes"/>
      <point x="759" y="201"/>
      <point x="759" y="201"/>
      <point x="759" y="201" type="curve"/>
      <point x="759" y="201" type="line"/>
      <point x="773" y="201"/>
      <point x="786" y="207"/>
      <point x="796" y="216" type="curve" smooth="yes"/>
      <point x="1526" y="946" type="line" smooth="yes"/>
      <point x="1545" y="966"/>
      <point x="1545" y="998"/>
      <point x="1526" y="1018" type="curve" smooth="yes"/>
    </contour>
  </outline>
</glyph>
<glyph name="renren" format="1">
  <advance width="1920"/>
  <unicode hex="F18B"/>
  <outline>
    <contour>
      <point x="805" y="163" type="curve"/>
      <point x="679" y="242"/>
      <point x="578" y="362"/>
      <point x="544" y="503" type="curve"/>
      <point x="510" y="362"/>
      <point x="409" y="242"/>
      <point x="283" y="163" type="curve"/>
      <point x="360" y="120"/>
      <point x="449" y="96"/>
      <point x="544" y="96" type="curve" smooth="yes"/>
      <point x="638" y="96"/>
      <point x="727" y="120"/>
    </contour>
    <contour>
      <point x="453" y="1176" type="line"/>
      <point x="196" y="1133"/>
      <point x="0" y="909"/>
      <point x="0" y="640" type="curve" smooth="yes"/>
      <point x="0" y="506"/>
      <point x="49" y="383"/>
      <point x="129" y="289" type="curve"/>
      <point x="319" y="381"/>
      <point x="453" y="589"/>
      <point x="453" y="832" type="curve" smooth="yes"/>
    </contour>
    <contour>
      <point x="958" y="991" type="curve"/>
      <point x="877" y="1087"/>
      <point x="763" y="1154"/>
      <point x="634" y="1176" type="curve"/>
      <point x="634" y="835" type="line"/>
      <point x="634" y="835" type="line"/>
      <point x="634" y="591"/>
      <point x="767" y="381"/>
      <point x="958" y="289" type="curve"/>
      <point x="878" y="383"/>
      <point x="830" y="506"/>
      <point x="830" y="640" type="curve" smooth="yes"/>
      <point x="830" y="774"/>
      <point x="878" y="896"/>
    </contour>
    <contour>
      <point x="1638" y="163" type="curve"/>
      <point x="1512" y="242"/>
      <point x="1411" y="362"/>
      <point x="1377" y="503" type="curve"/>
      <point x="1343" y="362"/>
      <point x="1242" y="242"/>
      <point x="1116" y="163" type="curve"/>
      <point x="1193" y="120"/>
      <point x="1282" y="96"/>
      <point x="1377" y="96" type="curve" smooth="yes"/>
      <point x="1471" y="96"/>
      <point x="1560" y="120"/>
    </contour>
    <contour>
      <point x="1286" y="1176" type="line"/>
      <point x="1157" y="1154"/>
      <point x="1040" y="1087"/>
      <point x="958" y="991" type="curve"/>
      <point x="1039" y="896"/>
      <point x="1091" y="774"/>
      <point x="1091" y="640" type="curve" smooth="yes"/>
      <point x="1091" y="506"/>
      <point x="1039" y="383"/>
      <point x="958" y="289" type="curve"/>
      <point x="958" y="289"/>
      <point x="958" y="289"/>
      <point x="958" y="289" type="curve"/>
      <point x="958" y="289"/>
      <point x="958" y="289"/>
      <point x="958" y="289" type="curve"/>
      <point x="1149" y="381"/>
      <point x="1286" y="589"/>
      <point x="1286" y="832" type="curve" smooth="yes"/>
    </contour>
    <contour>
      <point x="1920" y="640" type="curve" smooth="yes"/>
      <point x="1920" y="909"/>
      <point x="1724" y="1133"/>
      <point x="1467" y="1176" type="curve"/>
      <point x="1467" y="835" type="line"/>
      <point x="1467" y="835" type="line"/>
      <point x="1467" y="591"/>
      <point x="1601" y="381"/>
      <point x="1791" y="289" type="curve"/>
      <point x="1872" y="383"/>
      <point x="1920" y="506"/>
    </contour>
  </outline>
</glyph>
<glyph name="_446" format="1">
  <advance width="1536"/>
  <unicode hex="F1DB"/>
  <outline>
    <contour>
      <point x="1536" y="640" type="curve" smooth="yes"/>
      <point x="1536" y="1064"/>
      <point x="1192" y="1408"/>
      <point x="768" y="1408" type="curve"/>
      <point x="768" y="1408" type="line"/>
      <point x="344" y="1408"/>
      <point x="0" y="1064"/>
      <point x="0" y="640" type="curve" smooth="yes"/>
      <point x="0" y="216"/>
      <point x="344" y="-128"/>
      <point x="768" y="-128" type="curve" smooth="yes"/>
      <point x="1192" y="-128"/>
      <point x="1536" y="216"/>
    </contour>
    <contour>
      <point x="768" y="1280" type="curve" smooth="yes"/>
      <point x="1121" y="1280"/>
      <point x="1408" y="993"/>
      <point x="1408" y="640" type="curve" smooth="yes"/>
      <point x="1408" y="287"/>
      <point x="1121" y="0"/>
      <point x="768" y="0" type="curve" smooth="yes"/>
      <point x="415" y="0"/>
      <point x="128" y="287"/>
      <point x="128" y="640" type="curve" smooth="yes"/>
      <point x="128" y="993"/>
      <point x="415" y="1280"/>
    </contour>
  </outline>
</glyph>
<glyph name="ok_dotted" format="1">
  <advance width="1795"/>
  <unicode hex="F300"/>
  <outline>
    <contour>
      <point x="203" y="625" type="curve" smooth="yes"/>
      <point x="206" y="628" type="line"/>
      <point x="155" y="679" type="line"/>
      <point x="152" y="676" type="line" smooth="yes"/>
      <point x="134" y="658"/>
      <point x="124" y="633"/>
      <point x="124" y="608" type="curve" smooth="yes"/>
      <point x="124" y="591"/>
      <point x="129" y="573"/>
      <point x="139" y="557" type="curve"/>
      <point x="197" y="616" type="line"/>
      <point x="199" y="620"/>
      <point x="201" y="623"/>
    </contour>
    <contour>
      <point x="667" y="467" type="move"/>
      <point x="681" y="453"/>
      <point x="699" y="445"/>
      <point x="718" y="445" type="curve" smooth="yes"/>
      <point x="718" y="445"/>
      <point x="718" y="445"/>
      <point x="718" y="445" type="curve" smooth="yes"/>
      <point x="737" y="445"/>
      <point x="755" y="453"/>
      <point x="769" y="466" type="curve" smooth="yes"/>
      <point x="840" y="538" type="line"/>
      <point x="789" y="588" type="line"/>
    </contour>
    <contour>
      <point x="616" y="518" type="line"/>
      <point x="667" y="568" type="line"/>
      <point x="608" y="628" type="line"/>
      <point x="557" y="577" type="line"/>
    </contour>
    <contour>
      <point x="1111" y="809" type="line"/>
      <point x="1171" y="869" type="line"/>
      <point x="1120" y="920" type="line"/>
      <point x="1060" y="860" type="line"/>
    </contour>
    <contour>
      <point x="741" y="99" type="line"/>
      <point x="735" y="93" type="line" smooth="yes"/>
      <point x="731" y="89"/>
      <point x="724" y="86"/>
      <point x="718" y="86" type="curve" smooth="yes"/>
      <point x="712" y="86"/>
      <point x="705" y="89"/>
      <point x="701" y="93" type="curve" smooth="yes"/>
      <point x="681" y="113" type="line"/>
      <point x="630" y="62" type="line"/>
      <point x="650" y="42" type="line" smooth="yes"/>
      <point x="668" y="24"/>
      <point x="693" y="14"/>
      <point x="718" y="14" type="curve" smooth="yes"/>
      <point x="743" y="14"/>
      <point x="768" y="24"/>
      <point x="786" y="42" type="curve" smooth="yes"/>
      <point x="792" y="48" type="line"/>
    </contour>
    <contour>
      <point x="1293" y="651" type="line"/>
      <point x="1233" y="591" type="line"/>
      <point x="1284" y="540" type="line"/>
      <point x="1343" y="600" type="line"/>
    </contour>
    <contour>
      <point x="520" y="275" type="line"/>
      <point x="459" y="335" type="line"/>
      <point x="408" y="284" type="line"/>
      <point x="469" y="224" type="line"/>
    </contour>
    <contour>
      <point x="902" y="159" type="line"/>
      <point x="851" y="209" type="line"/>
      <point x="792" y="150" type="line"/>
      <point x="843" y="99" type="line"/>
    </contour>
    <contour>
      <point x="630" y="164" type="line"/>
      <point x="571" y="224" type="line"/>
      <point x="520" y="173" type="line"/>
      <point x="579" y="113" type="line"/>
    </contour>
    <contour>
      <point x="962" y="320" type="line"/>
      <point x="902" y="260" type="line"/>
      <point x="953" y="209" type="line"/>
      <point x="1013" y="269" type="line"/>
    </contour>
    <contour>
      <point x="1674" y="970" type="curve" smooth="yes"/>
      <point x="1674" y="995"/>
      <point x="1664" y="1020"/>
      <point x="1646" y="1038" type="curve" smooth="yes"/>
      <point x="1645" y="1040" type="line"/>
      <point x="1594" y="989" type="line"/>
      <point x="1595" y="987" type="line" smooth="yes"/>
      <point x="1599" y="983"/>
      <point x="1602" y="977"/>
      <point x="1602" y="970" type="curve" smooth="yes"/>
      <point x="1602" y="964"/>
      <point x="1599" y="958"/>
      <point x="1595" y="953" type="curve" smooth="yes"/>
      <point x="1564" y="922" type="line"/>
      <point x="1615" y="871" type="line"/>
      <point x="1646" y="902" type="line" smooth="yes"/>
      <point x="1664" y="920"/>
      <point x="1674" y="945"/>
    </contour>
    <contour>
      <point x="1332" y="1030" type="line"/>
      <point x="1391" y="1090" type="line"/>
      <point x="1340" y="1141" type="line"/>
      <point x="1281" y="1081" type="line"/>
    </contour>
    <contour>
      <point x="1222" y="920" type="line"/>
      <point x="1281" y="979" type="line"/>
      <point x="1230" y="1030" type="line"/>
      <point x="1171" y="971" type="line"/>
    </contour>
    <contour>
      <point x="1513" y="871" type="line"/>
      <point x="1454" y="812" type="line"/>
      <point x="1505" y="761" type="line"/>
      <point x="1564" y="820" type="line"/>
    </contour>
    <contour>
      <point x="1459" y="1124" type="line" smooth="yes"/>
      <point x="1459" y="1124"/>
      <point x="1459" y="1124"/>
      <point x="1459" y="1123" type="curve" smooth="yes"/>
      <point x="1463" y="1120" type="line"/>
      <point x="1514" y="1170" type="line"/>
      <point x="1510" y="1174" type="line" smooth="yes"/>
      <point x="1492" y="1192"/>
      <point x="1467" y="1202"/>
      <point x="1442" y="1202" type="curve" smooth="yes"/>
      <point x="1425" y="1202"/>
      <point x="1408" y="1198"/>
      <point x="1393" y="1189" type="curve"/>
    </contour>
    <contour>
      <point x="1001" y="699" type="line"/>
      <point x="1060" y="758" type="line"/>
      <point x="1010" y="809" type="line"/>
      <point x="950" y="750" type="line"/>
    </contour>
    <contour>
      <point x="1072" y="430" type="line"/>
      <point x="1013" y="371" type="line"/>
      <point x="1063" y="320" type="line"/>
      <point x="1123" y="379" type="line"/>
    </contour>
    <contour>
      <point x="298" y="496" type="line"/>
      <point x="239" y="556" type="line"/>
      <point x="188" y="505" type="line"/>
      <point x="247" y="445" type="line"/>
    </contour>
    <contour>
      <point x="891" y="589" type="line"/>
      <point x="950" y="648" type="line"/>
      <point x="899" y="699" type="line"/>
      <point x="840" y="639" type="line"/>
    </contour>
    <contour>
      <point x="192" y="716" type="line"/>
      <point x="243" y="666" type="line"/>
      <point x="299" y="722" type="line"/>
      <point x="249" y="773" type="line"/>
    </contour>
    <contour>
      <point x="1182" y="540" type="line"/>
      <point x="1123" y="481" type="line"/>
      <point x="1174" y="430" type="line"/>
      <point x="1233" y="489" type="line"/>
    </contour>
    <contour>
      <point x="337" y="759" type="line"/>
      <point x="339" y="761" type="line" smooth="yes"/>
      <point x="343" y="766"/>
      <point x="350" y="768"/>
      <point x="356" y="768" type="curve" smooth="yes"/>
      <point x="362" y="768"/>
      <point x="369" y="766"/>
      <point x="373" y="761" type="curve" smooth="yes"/>
      <point x="396" y="739" type="line"/>
      <point x="447" y="789" type="line"/>
      <point x="424" y="812" type="line" smooth="yes"/>
      <point x="406" y="830"/>
      <point x="381" y="840"/>
      <point x="356" y="840" type="curve" smooth="yes"/>
      <point x="331" y="840"/>
      <point x="306" y="830"/>
      <point x="288" y="812" type="curve" smooth="yes"/>
      <point x="286" y="810" type="line"/>
    </contour>
    <contour>
      <point x="408" y="386" type="line"/>
      <point x="349" y="445" type="line"/>
      <point x="298" y="394" type="line"/>
      <point x="357" y="335" type="line"/>
    </contour>
    <contour>
      <point x="1403" y="761" type="line"/>
      <point x="1343" y="702" type="line"/>
      <point x="1394" y="651" type="line"/>
      <point x="1454" y="710" type="line"/>
    </contour>
    <contour>
      <point x="447" y="688" type="line"/>
      <point x="506" y="628" type="line"/>
      <point x="557" y="679" type="line"/>
      <point x="498" y="738" type="line"/>
    </contour>
    <contour>
      <point x="1551" y="1133" type="line"/>
      <point x="1500" y="1082" type="line"/>
      <point x="1557" y="1026" type="line"/>
      <point x="1607" y="1077" type="line"/>
    </contour>
  </outline>
</glyph>
<glyph name="coach_rec" format="1">
  <advance width="1536"/>
  <unicode hex="F301"/>
  <outline>
    <contour>
      <point x="407" y="202" type="line"/>
      <point x="408" y="1086" type="line"/>
      <point x="902" y="1086" type="line" smooth="yes"/>
      <point x="1007" y="1086"/>
      <point x="1118" y="982"/>
      <point x="1118" y="840" type="curve" smooth="yes"/>
      <point x="1118" y="716"/>
      <point x="1066" y="600"/>
      <point x="944" y="570" type="curve"/>
      <point x="1242" y="202" type="line"/>
      <point x="950" y="202" type="line"/>
      <point x="737" y="563" type="line"/>
      <point x="628" y="563" type="line"/>
      <point x="628" y="202" type="line"/>
    </contour>
    <contour>
      <point x="628" y="927" type="line"/>
      <point x="628" y="720" type="line"/>
      <point x="796" y="720" type="line" smooth="yes"/>
      <point x="844" y="720"/>
      <point x="908" y="744"/>
      <point x="908" y="827" type="curve" smooth="yes"/>
      <point x="908" y="893"/>
      <point x="838" y="927"/>
      <point x="768" y="927" type="curve" smooth="yes"/>
    </contour>
    <contour>
      <point x="1536" y="640" type="curve" smooth="yes"/>
      <point x="1536" y="1064"/>
      <point x="1192" y="1408"/>
      <point x="768" y="1408" type="curve" smooth="yes"/>
      <point x="344" y="1408"/>
      <point x="0" y="1064"/>
      <point x="0" y="640" type="curve" smooth="yes"/>
      <point x="0" y="216"/>
      <point x="344" y="-128"/>
      <point x="768" y="-128" type="curve" smooth="yes"/>
      <point x="1192" y="-128"/>
      <point x="1536" y="216"/>
    </contour>
  </outline>
</glyph>
<glyph name="badge" format="1">
  <advance width="1536"/>
  <unicode hex="F302"/>
  <outline>
    <contour>
      <point x="767" y="1408" type="line"/>
      <point x="904" y="1147" type="line"/>
      <point x="1152" y="1305" type="line"/>
      <point x="1139" y="1012" type="line"/>
      <point x="1432" y="1024" type="line"/>
      <point x="1274" y="777" type="line"/>
      <point x="1536" y="640" type="line"/>
      <point x="1274" y="505" type="line"/>
      <point x="1432" y="257" type="line"/>
      <point x="1139" y="270" type="line"/>
      <point x="1152" y="-25" type="line"/>
      <point x="904" y="134" type="line"/>
      <point x="767" y="-128" type="line"/>
      <point x="632" y="134" type="line"/>
      <point x="384" y="-25" type="line"/>
      <point x="398" y="270" type="line"/>
      <point x="103" y="257" type="line"/>
      <point x="261" y="505" type="line"/>
      <point x="0" y="640" type="line"/>
      <point x="261" y="777" type="line"/>
      <point x="103" y="1024" type="line"/>
      <point x="398" y="1012" type="line"/>
      <point x="384" y="1305" type="line"/>
      <point x="632" y="1147" type="line"/>
    </contour>
  </outline>
</glyph>
<glyph name="activity" format="1">
  <advance width="1536"/>
  <unicode hex="F303"/>
  <outline>
    <contour>
      <point x="1536" y="0" type="line"/>
      <point x="1151" y="0" type="line"/>
      <point x="1151" y="1278" type="line"/>
      <point x="1536" y="1278" type="line"/>
    </contour>
    <contour>
      <point x="958" y="0" type="line"/>
      <point x="575" y="0" type="line"/>
      <point x="575" y="767" type="line"/>
      <point x="958" y="767" type="line"/>
    </contour>
    <contour>
      <point x="383" y="0" type="line"/>
      <point x="0" y="0" type="line"/>
      <point x="0" y="1025" type="line"/>
      <point x="383" y="1025" type="line"/>
    </contour>
  </outline>
</glyph>
<glyph name="focus" format="1">
  <advance width="1536"/>
  <unicode hex="F304"/>
  <outline>
    <contour>
      <point x="510" y="641" type="curve" smooth="yes"/>
      <point x="510" y="496"/>
      <point x="624" y="382"/>
      <point x="769" y="382" type="curve" smooth="yes"/>
      <point x="912" y="382"/>
      <point x="1026" y="496"/>
      <point x="1026" y="641" type="curve" smooth="yes"/>
      <point x="1026" y="784"/>
      <point x="912" y="898"/>
      <point x="769" y="898" type="curve" smooth="yes"/>
      <point x="624" y="898"/>
      <point x="510" y="784"/>
    </contour>
    <contour>
      <point x="769" y="131" type="curve" smooth="yes"/>
      <point x="486" y="131"/>
      <point x="259" y="358"/>
      <point x="259" y="641" type="curve" smooth="yes"/>
      <point x="259" y="922"/>
      <point x="486" y="1150"/>
      <point x="769" y="1150" type="curve" smooth="yes"/>
      <point x="1050" y="1150"/>
      <point x="1278" y="922"/>
      <point x="1278" y="641" type="curve" smooth="yes"/>
      <point x="1278" y="358"/>
      <point x="1050" y="131"/>
    </contour>
    <contour>
      <point x="769" y="1408" type="curve" smooth="yes"/>
      <point x="342" y="1408"/>
      <point x="0" y="1060"/>
      <point x="0" y="641" type="curve" smooth="yes"/>
      <point x="0" y="220"/>
      <point x="342" y="-128"/>
      <point x="769" y="-128" type="curve" smooth="yes"/>
      <point x="1188" y="-128"/>
      <point x="1536" y="220"/>
      <point x="1536" y="641" type="curve" smooth="yes"/>
      <point x="1536" y="1060"/>
      <point x="1188" y="1408"/>
    </contour>
  </outline>
</glyph>
<glyph name="goals" format="1">
  <advance width="1536"/>
  <unicode hex="F305"/>
  <outline>
    <contour>
      <point x="1239" y="837" type="curve" smooth="yes"/>
      <point x="769" y="360" type="line"/>
      <point x="675" y="273" type="line" smooth="yes"/>
      <point x="663" y="261"/>
      <point x="651" y="255"/>
      <point x="632" y="255" type="curve" smooth="yes"/>
      <point x="613" y="255"/>
      <point x="601" y="261"/>
      <point x="588" y="273" type="curve" smooth="yes"/>
      <point x="496" y="360" type="line"/>
      <point x="261" y="601" type="line" smooth="yes"/>
      <point x="247" y="615"/>
      <point x="241" y="627"/>
      <point x="241" y="645" type="curve" smooth="yes"/>
      <point x="241" y="663"/>
      <point x="247" y="676"/>
      <point x="261" y="689" type="curve" smooth="yes"/>
      <point x="347" y="782" type="line" smooth="yes"/>
      <point x="359" y="794"/>
      <point x="378" y="800"/>
      <point x="396" y="800" type="curve" smooth="yes"/>
      <point x="409" y="800"/>
      <point x="428" y="794"/>
      <point x="440" y="782" type="curve" smooth="yes"/>
      <point x="632" y="583" type="line"/>
      <point x="1066" y="1017" type="line" smooth="yes"/>
      <point x="1072" y="1029"/>
      <point x="1090" y="1035"/>
      <point x="1109" y="1035" type="curve" smooth="yes"/>
      <point x="1121" y="1035"/>
      <point x="1140" y="1029"/>
      <point x="1152" y="1017" type="curve" smooth="yes"/>
      <point x="1239" y="930" type="line" smooth="yes"/>
      <point x="1251" y="918"/>
      <point x="1257" y="899"/>
      <point x="1257" y="880" type="curve" smooth="yes"/>
      <point x="1257" y="868"/>
      <point x="1251" y="850"/>
    </contour>
    <contour>
      <point x="769" y="1408" type="curve" smooth="yes"/>
      <point x="347" y="1408"/>
      <point x="0" y="1067"/>
      <point x="0" y="641" type="curve" smooth="yes"/>
      <point x="0" y="219"/>
      <point x="347" y="-128"/>
      <point x="769" y="-128" type="curve" smooth="yes"/>
      <point x="1189" y="-128"/>
      <point x="1536" y="219"/>
      <point x="1536" y="641" type="curve" smooth="yes"/>
      <point x="1536" y="1067"/>
      <point x="1189" y="1408"/>
    </contour>
  </outline>
</glyph>
<glyph name="progress" format="1">
  <advance width="1536"/>
  <unicode hex="F306"/>
  <outline>
    <contour>
      <point x="1536" y="1414" type="line"/>
      <point x="1090" y="1414" type="line"/>
      <point x="1276" y="1254" type="line"/>
      <point x="811" y="894" type="line"/>
      <point x="496" y="1135" type="line"/>
      <point x="0" y="768" type="line"/>
      <point x="0" y="563" type="line"/>
      <point x="496" y="931" type="line"/>
      <point x="811" y="692" type="line"/>
      <point x="1370" y="1123" type="line"/>
      <point x="1536" y="984" type="line"/>
    </contour>
    <contour>
      <point x="0" y="314" type="line"/>
      <point x="496" y="684" type="line"/>
      <point x="792" y="456" type="line"/>
      <point x="1375" y="876" type="line"/>
      <point x="1536" y="724" type="line"/>
      <point x="1536" y="0" type="line"/>
      <point x="0" y="0" type="line"/>
    </contour>
  </outline>
</glyph>
<glyph name="scratchpad" format="1">
  <advance width="1536"/>
  <unicode hex="F307"/>
  <outline>
    <contour>
      <point x="1317" y="470" type="line" smooth="yes"/>
      <point x="1317" y="423"/>
      <point x="1282" y="385"/>
      <point x="1234" y="385" type="curve" smooth="yes"/>
      <point x="316" y="385" type="line" smooth="yes"/>
      <point x="265" y="385"/>
      <point x="230" y="423"/>
      <point x="230" y="470" type="curve" smooth="yes"/>
      <point x="230" y="971" type="line" smooth="yes"/>
      <point x="230" y="1017"/>
      <point x="265" y="1054"/>
      <point x="316" y="1054" type="curve" smooth="yes"/>
      <point x="1234" y="1054" type="line" smooth="yes"/>
      <point x="1282" y="1054"/>
      <point x="1317" y="1017"/>
      <point x="1317" y="971" type="curve" smooth="yes"/>
    </contour>
    <contour>
      <point x="1430" y="1214" type="curve" smooth="yes"/>
      <point x="104" y="1214" type="line" smooth="yes"/>
      <point x="49" y="1214"/>
      <point x="0" y="1178"/>
      <point x="0" y="1132" type="curve" smooth="yes"/>
      <point x="0" y="310" type="line" smooth="yes"/>
      <point x="0" y="261"/>
      <point x="49" y="225"/>
      <point x="104" y="225" type="curve" smooth="yes"/>
      <point x="1430" y="225" type="line" smooth="yes"/>
      <point x="1486" y="225"/>
      <point x="1536" y="261"/>
      <point x="1536" y="310" type="curve" smooth="yes"/>
      <point x="1536" y="1132" type="line" smooth="yes"/>
      <point x="1536" y="1178"/>
      <point x="1486" y="1214"/>
    </contour>
  </outline>
</glyph>
<glyph name="discussion" format="1">
  <advance width="1536"/>
  <unicode hex="F308"/>
  <outline>
    <contour>
      <point x="1303" y="205" type="curve"/>
      <point x="1340" y="132"/>
      <point x="1375" y="93"/>
      <point x="1413" y="44" type="curve" smooth="yes"/>
      <point x="1413" y="32"/>
      <point x="1425" y="19"/>
      <point x="1425" y="8" type="curve" smooth="yes"/>
      <point x="1425" y="-5"/>
      <point x="1413" y="-17"/>
      <point x="1400" y="-17" type="curve" smooth="yes"/>
      <point x="1364" y="-17"/>
      <point x="1340" y="-17"/>
      <point x="1327" y="-5" type="curve" smooth="yes"/>
      <point x="1230" y="19"/>
      <point x="1155" y="57"/>
      <point x="1082" y="119" type="curve"/>
      <point x="1034" y="107"/>
      <point x="984" y="93"/>
      <point x="935" y="93" type="curve" smooth="yes"/>
      <point x="774" y="93"/>
      <point x="640" y="142"/>
      <point x="527" y="216" type="curve"/>
      <point x="552" y="216"/>
      <point x="576" y="216"/>
      <point x="602" y="216" type="curve" smooth="yes"/>
      <point x="786" y="216"/>
      <point x="960" y="278"/>
      <point x="1093" y="376" type="curve" smooth="yes"/>
      <point x="1242" y="486"/>
      <point x="1316" y="648"/>
      <point x="1316" y="808" type="curve" smooth="yes"/>
      <point x="1316" y="857"/>
      <point x="1316" y="906"/>
      <point x="1303" y="955" type="curve"/>
      <point x="1439" y="869"/>
      <point x="1536" y="733"/>
      <point x="1536" y="573" type="curve" smooth="yes"/>
      <point x="1536" y="426"/>
      <point x="1450" y="290"/>
    </contour>
    <contour>
      <point x="602" y="340" type="curve" smooth="yes"/>
      <point x="552" y="340"/>
      <point x="503" y="340"/>
      <point x="454" y="352" type="curve"/>
      <point x="380" y="290"/>
      <point x="307" y="253"/>
      <point x="209" y="229" type="curve" smooth="yes"/>
      <point x="197" y="229"/>
      <point x="172" y="216"/>
      <point x="136" y="216" type="curve"/>
      <point x="136" y="216"/>
      <point x="136" y="216"/>
      <point x="136" y="216" type="curve" smooth="yes"/>
      <point x="123" y="216"/>
      <point x="110" y="229"/>
      <point x="110" y="241" type="curve" smooth="yes"/>
      <point x="110" y="266"/>
      <point x="123" y="278"/>
      <point x="123" y="290" type="curve" smooth="yes"/>
      <point x="159" y="327"/>
      <point x="197" y="364"/>
      <point x="233" y="437" type="curve"/>
      <point x="86" y="523"/>
      <point x="0" y="660"/>
      <point x="0" y="808" type="curve" smooth="yes"/>
      <point x="0" y="1077"/>
      <point x="270" y="1287"/>
      <point x="602" y="1287" type="curve" smooth="yes"/>
      <point x="935" y="1287"/>
      <point x="1205" y="1077"/>
      <point x="1205" y="808" type="curve" smooth="yes"/>
      <point x="1205" y="549"/>
      <point x="935" y="340"/>
    </contour>
  </outline>
</glyph>
<glyph name="coaches" format="1">
  <advance width="1309"/>
  <unicode hex="F309"/>
  <outline>
    <contour>
      <point x="647" y="845" type="curve" smooth="yes"/>
      <point x="836" y="845"/>
      <point x="985" y="985"/>
      <point x="985" y="1149" type="curve" smooth="yes"/>
      <point x="985" y="1326"/>
      <point x="836" y="1452"/>
      <point x="647" y="1452" type="curve" smooth="yes"/>
      <point x="473" y="1452"/>
      <point x="324" y="1326"/>
      <point x="324" y="1149" type="curve" smooth="yes"/>
      <point x="324" y="985"/>
      <point x="473" y="845"/>
    </contour>
    <contour>
      <point x="647" y="770" type="curve" smooth="yes"/>
      <point x="283" y="770"/>
      <point x="0" y="390"/>
      <point x="0" y="-77" type="curve" smooth="yes"/>
      <point x="0" y="-90"/>
      <point x="0" y="-103"/>
      <point x="0" y="-128" type="curve"/>
      <point x="1309" y="-128" type="line"/>
      <point x="1309" y="-103"/>
      <point x="1309" y="-90"/>
      <point x="1309" y="-77" type="curve" smooth="yes"/>
      <point x="1309" y="390"/>
      <point x="1012" y="770"/>
    </contour>
  </outline>
</glyph>
<glyph name="notification" format="1">
  <advance width="1792"/>
  <unicode hex="F311"/>
  <outline>
    <contour>
      <point x="1664" y="-182" type="line"/>
      <point x="1310" y="137" type="line"/>
      <point x="1664" y="137" type="line"/>
    </contour>
    <contour>
      <point x="128" y="490" type="line"/>
      <point x="128" y="171" type="line"/>
      <point x="482" y="490" type="line"/>
    </contour>
    <contour>
      <point x="0" y="1386" type="line"/>
      <point x="0" y="490" type="line"/>
      <point x="0" y="490"/>
      <point x="1280" y="490"/>
      <point x="1280" y="490" type="curve"/>
      <point x="1280" y="1386" type="line"/>
    </contour>
    <contour>
      <point x="1408" y="1033" type="line"/>
      <point x="1408" y="361" type="line"/>
      <point x="512" y="361" type="line"/>
      <point x="512" y="137" type="line"/>
      <point x="512" y="137"/>
      <point x="1792" y="137"/>
      <point x="1792" y="137" type="curve"/>
      <point x="1792" y="1033" type="line"/>
    </contour>
  </outline>
</glyph>
<glyph name="half_circle" format="1">
  <advance width="1536"/>
  <unicode hex="F312"/>
  <outline>
    <contour>
      <point x="769.0" y="1408.0" type="line"/>
      <point x="769.0" y="1408.0"/>
      <point x="768.0" y="1408.0"/>
      <point x="768.0" y="1408.0" type="curve"/>
      <point x="768.0" y="1408.0" type="line"/>
      <point x="344.0" y="1408.0"/>
      <point x="0.0" y="1064.0"/>
      <point x="0.0" y="640.0" type="curve" smooth="yes"/>
      <point x="0.0" y="216.0"/>
      <point x="344.0" y="-128.0"/>
      <point x="768.0" y="-128.0" type="curve" smooth="yes"/>
      <point x="768.0" y="-128.0"/>
      <point x="768.0" y="-128.0"/>
      <point x="769.0" y="-128.0" type="curve"/>
      <point x="769.0" y="36.0" type="line"/>
      <point x="768.0" y="36.0"/>
      <point x="768.0" y="36.0"/>
      <point x="768.0" y="36.0" type="curve" smooth="yes"/>
      <point x="468.0" y="36.0"/>
      <point x="164.0" y="340.0"/>
      <point x="164.0" y="640.0" type="curve" smooth="yes"/>
      <point x="164.0" y="940.0"/>
      <point x="468.0" y="1244.0"/>
      <point x="768.0" y="1244.0" type="curve" smooth="yes"/>
      <point x="768.0" y="1244.0"/>
      <point x="769.0" y="1244.0"/>
      <point x="769.0" y="1244.0" type="curve"/>
    </contour>
  </outline>
</glyph>
<glyph name="inset_circle" format="1">
  <advance width="1536"/>
  <unicode hex="F313"/>
  <outline>
    <contour>
      <point x="1032" y="1164"/>
      <point x="1292" y="904"/>
      <point x="1292" y="640" type="curve" smooth="yes"/>
      <point x="1292" y="376"/>
      <point x="1032" y="116"/>
      <point x="768" y="116" type="curve" smooth="yes"/>
      <point x="504" y="116"/>
      <point x="244" y="376"/>
      <point x="244" y="640" type="curve" smooth="yes"/>
      <point x="244" y="904"/>
      <point x="504" y="1164"/>
      <point x="768" y="1164" type="curve" smooth="yes"/>
    </contour>
  </outline>
</glyph>
<glyph name="mini_video" format="1">
  <advance width="1536"/>
  <unicode hex="F314"/>
  <outline>
    <contour>
      <point x="1132" y="636" type="line" smooth="yes"/>
      <point x="1145" y="642"/>
      <point x="1145" y="654"/>
      <point x="1132" y="661" type="curve" smooth="yes"/>
      <point x="583" y="966" type="line" smooth="yes"/>
      <point x="570" y="973"/>
      <point x="559" y="967"/>
      <point x="559" y="952" type="curve" smooth="yes"/>
      <point x="559" y="344" type="line" smooth="yes"/>
      <point x="559" y="330"/>
      <point x="570" y="323"/>
      <point x="583" y="330" type="curve" smooth="yes"/>
    </contour>
  </outline>
</glyph>
<glyph name="mini_exercise" format="1">
  <advance width="1536"/>
  <unicode hex="F315"/>
  <outline>
    <contour>
      <point x="1163" y="768" type="curve" smooth="yes"/>
      <point x="1163" y="782"/>
      <point x="1148" y="787"/>
      <point x="1137" y="789" type="curve" smooth="yes"/>
      <point x="898" y="824" type="line"/>
      <point x="792" y="1040" type="line" smooth="yes"/>
      <point x="787" y="1049"/>
      <point x="779" y="1059"/>
      <point x="768" y="1059" type="curve" smooth="yes"/>
      <point x="758" y="1059"/>
      <point x="749" y="1049"/>
      <point x="745" y="1040" type="curve" smooth="yes"/>
      <point x="638" y="824" type="line"/>
      <point x="399" y="789" type="line" smooth="yes"/>
      <point x="388" y="787"/>
      <point x="373" y="782"/>
      <point x="373" y="768" type="curve" smooth="yes"/>
      <point x="373" y="759"/>
      <point x="379" y="750"/>
      <point x="385" y="745" type="curve"/>
      <point x="558" y="577" type="line"/>
      <point x="517" y="339" type="line" smooth="yes"/>
      <point x="516" y="335"/>
      <point x="516" y="332"/>
      <point x="516" y="330" type="curve" smooth="yes"/>
      <point x="516" y="317"/>
      <point x="522" y="306"/>
      <point x="536" y="306" type="curve" smooth="yes"/>
      <point x="543" y="306"/>
      <point x="549" y="308"/>
      <point x="555" y="312" type="curve" smooth="yes"/>
      <point x="768" y="424" type="line"/>
      <point x="982" y="312" type="line" smooth="yes"/>
      <point x="987" y="308"/>
      <point x="994" y="306"/>
      <point x="1001" y="306" type="curve" smooth="yes"/>
      <point x="1014" y="306"/>
      <point x="1020" y="317"/>
      <point x="1020" y="330" type="curve" smooth="yes"/>
      <point x="1020" y="332"/>
      <point x="1020" y="335"/>
      <point x="1020" y="339" type="curve" smooth="yes"/>
      <point x="979" y="577" type="line"/>
      <point x="1151" y="745" type="line" smooth="yes"/>
      <point x="1158" y="750"/>
      <point x="1163" y="759"/>
    </contour>
  </outline>
</glyph>
<glyph name="mini_article" format="1">
  <advance width="1536"/>
  <unicode hex="F316"/>
  <outline>
    <contour>
      <point x="1066" y="755" type="line" smooth="yes"/>
      <point x="1066" y="779"/>
      <point x="1053" y="812"/>
      <point x="1035" y="829" type="curve" smooth="yes"/>
      <point x="895" y="969" type="line" smooth="yes"/>
      <point x="879" y="986"/>
      <point x="846" y="1000"/>
      <point x="821" y="1000" type="curve" smooth="yes"/>
      <point x="533" y="1000" type="line" smooth="yes"/>
      <point x="510" y="1000"/>
      <point x="490" y="981"/>
      <point x="490" y="956" type="curve" smooth="yes"/>
      <point x="490" y="352" type="line" smooth="yes"/>
      <point x="490" y="328"/>
      <point x="510" y="308"/>
      <point x="533" y="308" type="curve" smooth="yes"/>
      <point x="1023" y="308" type="line" smooth="yes"/>
      <point x="1047" y="308"/>
      <point x="1066" y="328"/>
      <point x="1066" y="352" type="curve" smooth="yes"/>
    </contour>
    <contour>
      <point x="951" y="640" type="line" smooth="yes"/>
      <point x="951" y="648"/>
      <point x="945" y="654"/>
      <point x="936" y="654" type="curve" smooth="yes"/>
      <point x="620" y="654" type="line" smooth="yes"/>
      <point x="612" y="654"/>
      <point x="605" y="648"/>
      <point x="605" y="640" type="curve" smooth="yes"/>
      <point x="605" y="611" type="line" smooth="yes"/>
      <point x="605" y="603"/>
      <point x="612" y="596"/>
      <point x="620" y="596" type="curve" smooth="yes"/>
      <point x="936" y="596" type="line" smooth="yes"/>
      <point x="945" y="596"/>
      <point x="951" y="603"/>
      <point x="951" y="611" type="curve" smooth="yes"/>
    </contour>
    <contour>
      <point x="836" y="769" type="line"/>
      <point x="836" y="938" type="line"/>
      <point x="844" y="936"/>
      <point x="851" y="932"/>
      <point x="855" y="929" type="curve" smooth="yes"/>
      <point x="995" y="788" type="line" smooth="yes"/>
      <point x="999" y="785"/>
      <point x="1002" y="777"/>
      <point x="1005" y="769" type="curve"/>
    </contour>
    <contour>
      <point x="951" y="524" type="line" smooth="yes"/>
      <point x="951" y="533"/>
      <point x="945" y="539"/>
      <point x="936" y="539" type="curve" smooth="yes"/>
      <point x="620" y="539" type="line" smooth="yes"/>
      <point x="612" y="539"/>
      <point x="605" y="533"/>
      <point x="605" y="524" type="curve" smooth="yes"/>
      <point x="605" y="496" type="line" smooth="yes"/>
      <point x="605" y="488"/>
      <point x="612" y="481"/>
      <point x="620" y="481" type="curve" smooth="yes"/>
      <point x="936" y="481" type="line" smooth="yes"/>
      <point x="945" y="481"/>
      <point x="951" y="488"/>
      <point x="951" y="496" type="curve" smooth="yes"/>
    </contour>
    <contour>
      <point x="548" y="366" type="line"/>
      <point x="548" y="942" type="line"/>
      <point x="778" y="942" type="line"/>
      <point x="778" y="755" type="line" smooth="yes"/>
      <point x="778" y="731"/>
      <point x="798" y="712"/>
      <point x="821" y="712" type="curve" smooth="yes"/>
      <point x="1008" y="712" type="line"/>
      <point x="1008" y="366" type="line"/>
    </contour>
  </outline>
</glyph>
<glyph name="mini_scratchpad" format="1">
  <advance width="1536"/>
  <unicode hex="F317"/>
  <outline>
    <contour>
      <point x="1046" y="779" type="line"/>
      <point x="908" y="779" type="line"/>
      <point x="908" y="918" type="line"/>
      <point x="1046" y="918" type="line"/>
    </contour>
    <contour>
      <point x="1046" y="572" type="line"/>
      <point x="908" y="572" type="line"/>
      <point x="908" y="710" type="line"/>
      <point x="1046" y="710" type="line"/>
    </contour>
    <contour>
      <point x="836" y="572" type="line"/>
      <point x="698" y="572" type="line"/>
      <point x="698" y="710" type="line"/>
      <point x="836" y="710" type="line"/>
    </contour>
    <contour>
      <point x="836" y="362" type="line"/>
      <point x="698" y="362" type="line"/>
      <point x="698" y="500" type="line"/>
      <point x="836" y="500" type="line"/>
    </contour>
    <contour>
      <point x="836" y="779" type="line"/>
      <point x="698" y="779" type="line"/>
      <point x="698" y="918" type="line"/>
      <point x="836" y="918" type="line"/>
    </contour>
    <contour>
      <point x="1046" y="362" type="line"/>
      <point x="908" y="362" type="line"/>
      <point x="908" y="500" type="line"/>
      <point x="1046" y="500" type="line"/>
    </contour>
    <contour>
      <point x="629" y="779" type="line"/>
      <point x="490" y="779" type="line"/>
      <point x="490" y="918" type="line"/>
      <point x="629" y="918" type="line"/>
    </contour>
    <contour>
      <point x="629" y="572" type="line"/>
      <point x="490" y="572" type="line"/>
      <point x="490" y="710" type="line"/>
      <point x="629" y="710" type="line"/>
    </contour>
    <contour>
      <point x="629" y="362" type="line"/>
      <point x="490" y="362" type="line"/>
      <point x="490" y="500" type="line"/>
      <point x="629" y="500" type="line"/>
    </contour>
  </outline>
</glyph>
<glyph name="mini_talkie" format="1">
  <advance width="1536"/>
  <unicode hex="F318"/>
  <outline>
    <contour>
      <point x="952" y="770" type="line"/>
      <point x="824" y="770" type="line"/>
      <point x="824" y="898" type="line"/>
      <point x="952" y="898" type="line"/>
    </contour>
    <contour>
      <point x="760" y="194" type="line"/>
      <point x="632" y="194" type="line"/>
      <point x="632" y="322" type="line"/>
      <point x="760" y="322" type="line"/>
    </contour>
    <contour>
      <point x="952" y="578" type="line"/>
      <point x="824" y="578" type="line"/>
      <point x="824" y="706" type="line"/>
      <point x="952" y="706" type="line"/>
    </contour>
    <contour>
      <point x="760" y="578" type="line"/>
      <point x="632" y="578" type="line"/>
      <point x="632" y="706" type="line"/>
      <point x="760" y="706" type="line"/>
    </contour>
    <contour>
      <point x="760" y="962" type="line"/>
      <point x="632" y="962" type="line"/>
      <point x="632" y="1090" type="line"/>
      <point x="760" y="1090" type="line"/>
    </contour>
    <contour>
      <point x="760" y="386" type="line"/>
      <point x="632" y="386" type="line"/>
      <point x="632" y="514" type="line"/>
      <point x="760" y="514" type="line"/>
    </contour>
    <contour>
      <point x="1144" y="576" type="line"/>
      <point x="1016" y="576" type="line"/>
      <point x="1016" y="704" type="line"/>
      <point x="1144" y="704" type="line"/>
    </contour>
    <contour>
      <point x="952" y="386" type="line"/>
      <point x="824" y="386" type="line"/>
      <point x="824" y="514" type="line"/>
      <point x="952" y="514" type="line"/>
    </contour>
    <contour>
      <point x="760" y="770" type="line"/>
      <point x="632" y="770" type="line"/>
      <point x="632" y="898" type="line"/>
      <point x="760" y="898" type="line"/>
    </contour>
  </outline>
</glyph>
<glyph name="mini_challenge" format="1">
  <advance width="1536"/>
  <unicode hex="F319"/>
  <outline>
    <contour>
      <point x="896" y="707" type="line"/>
      <point x="784" y="707" type="line"/>
      <point x="784" y="809" type="line"/>
      <point x="896" y="809" type="line"/>
    </contour>
    <contour>
      <point x="467" y="707" type="line"/>
      <point x="356" y="707" type="line"/>
      <point x="356" y="809" type="line"/>
      <point x="467" y="809" type="line"/>
    </contour>
    <contour>
      <point x="1180" y="707" type="line"/>
      <point x="1070" y="707" type="line"/>
      <point x="1070" y="809" type="line"/>
      <point x="1180" y="809" type="line"/>
    </contour>
    <contour>
      <point x="673" y="447" type="line"/>
      <point x="562" y="447" type="line"/>
      <point x="562" y="549" type="line"/>
      <point x="673" y="549" type="line"/>
    </contour>
    <contour>
      <point x="959" y="447" type="line"/>
      <point x="848" y="447" type="line"/>
      <point x="848" y="549" type="line"/>
      <point x="959" y="549" type="line"/>
    </contour>
    <contour>
      <point x="1039" y="707" type="line"/>
      <point x="928" y="707" type="line"/>
      <point x="928" y="809" type="line"/>
      <point x="1039" y="809" type="line"/>
    </contour>
    <contour>
      <point x="562" y="346" type="line"/>
      <point x="452" y="346" type="line"/>
      <point x="452" y="447" type="line"/>
      <point x="562" y="447" type="line"/>
    </contour>
    <contour>
      <point x="610" y="707" type="line"/>
      <point x="499" y="707" type="line"/>
      <point x="499" y="809" type="line"/>
      <point x="610" y="809" type="line"/>
    </contour>
    <contour>
      <point x="816" y="447" type="line"/>
      <point x="704" y="447" type="line"/>
      <point x="704" y="549" type="line"/>
      <point x="816" y="549" type="line"/>
    </contour>
    <contour>
      <point x="959" y="577" type="line"/>
      <point x="848" y="577" type="line"/>
      <point x="848" y="679" type="line"/>
      <point x="959" y="679" type="line"/>
    </contour>
    <contour>
      <point x="816" y="837" type="line"/>
      <point x="704" y="837" type="line"/>
      <point x="704" y="938" type="line"/>
      <point x="816" y="938" type="line"/>
    </contour>
    <contour>
      <point x="673" y="577" type="line"/>
      <point x="562" y="577" type="line"/>
      <point x="562" y="679" type="line"/>
      <point x="673" y="679" type="line"/>
    </contour>
    <contour>
      <point x="816" y="966" type="line"/>
      <point x="704" y="966" type="line"/>
      <point x="704" y="1068" type="line"/>
      <point x="816" y="1068" type="line"/>
    </contour>
    <contour>
      <point x="753" y="707" type="line"/>
      <point x="642" y="707" type="line"/>
      <point x="642" y="809" type="line"/>
      <point x="753" y="809" type="line"/>
    </contour>
    <contour>
      <point x="1070" y="346" type="line"/>
      <point x="959" y="346" type="line"/>
      <point x="959" y="447" type="line"/>
      <point x="1070" y="447" type="line"/>
    </contour>
    <contour>
      <point x="816" y="577" type="line"/>
      <point x="704" y="577" type="line"/>
      <point x="704" y="679" type="line"/>
      <point x="816" y="679" type="line"/>
    </contour>
  </outline>
</glyph>
<glyph name="mini_project" format="1">
  <advance width="1536"/>
  <unicode hex="F320"/>
  <outline>
    <contour>
      <point x="1086" y="945" type="curve" smooth="yes"/>
      <point x="1086" y="954"/>
      <point x="1078" y="961"/>
      <point x="1069" y="961" type="curve" smooth="yes"/>
      <point x="913" y="961"/>
      <point x="827" y="925"/>
      <point x="714" y="812" type="curve"/>
      <point x="688" y="786"/>
      <point x="662" y="756"/>
      <point x="635" y="724" type="curve"/>
      <point x="463" y="715" type="line" smooth="yes"/>
      <point x="459" y="715"/>
      <point x="455" y="712"/>
      <point x="452" y="708" type="curve" smooth="yes"/>
      <point x="350" y="534" type="line" smooth="yes"/>
      <point x="347" y="529"/>
      <point x="348" y="522"/>
      <point x="353" y="517" type="curve" smooth="yes"/>
      <point x="383" y="488" type="line" smooth="yes"/>
      <point x="384" y="486"/>
      <point x="388" y="484"/>
      <point x="392" y="484" type="curve" smooth="yes"/>
      <point x="394" y="484"/>
      <point x="395" y="484"/>
      <point x="397" y="485" type="curve" smooth="yes"/>
      <point x="521" y="523" type="line"/>
      <point x="648" y="396" type="line"/>
      <point x="610" y="272" type="line" smooth="yes"/>
      <point x="608" y="266"/>
      <point x="610" y="260"/>
      <point x="613" y="258" type="curve" smooth="yes"/>
      <point x="642" y="228" type="line" smooth="yes"/>
      <point x="645" y="225"/>
      <point x="649" y="223"/>
      <point x="652" y="223" type="curve" smooth="yes"/>
      <point x="654" y="223"/>
      <point x="657" y="224"/>
      <point x="659" y="225" type="curve" smooth="yes"/>
      <point x="833" y="327" type="line" smooth="yes"/>
      <point x="837" y="330"/>
      <point x="840" y="334"/>
      <point x="840" y="338" type="curve" smooth="yes"/>
      <point x="849" y="510" type="line"/>
      <point x="881" y="537"/>
      <point x="911" y="564"/>
      <point x="937" y="589" type="curve"/>
      <point x="1044" y="697"/>
      <point x="1086" y="796"/>
    </contour>
    <contour>
      <point x="1004" y="816" type="curve" smooth="yes"/>
      <point x="1004" y="781"/>
      <point x="976" y="753"/>
      <point x="941" y="753" type="curve" smooth="yes"/>
      <point x="906" y="753"/>
      <point x="877" y="781"/>
      <point x="877" y="816" type="curve" smooth="yes"/>
      <point x="877" y="851"/>
      <point x="906" y="879"/>
      <point x="941" y="879" type="curve" smooth="yes"/>
      <point x="976" y="879"/>
      <point x="1004" y="851"/>
    </contour>
  </outline>
</glyph>
<glyph name="challenge" format="1">
  <advance width="1664"/>
  <unicode hex="F321"/>
  <outline>
    <contour>
      <point x="1083" y="649" type="line"/>
      <point x="863" y="649" type="line"/>
      <point x="863" y="848" type="line"/>
      <point x="1083" y="848" type="line"/>
    </contour>
    <contour>
      <point x="243" y="649" type="line"/>
      <point x="26" y="649" type="line"/>
      <point x="26" y="848" type="line"/>
      <point x="243" y="848" type="line"/>
    </contour>
    <contour>
      <point x="1639" y="649" type="line"/>
      <point x="1423" y="649" type="line"/>
      <point x="1423" y="848" type="line"/>
      <point x="1639" y="848" type="line"/>
    </contour>
    <contour>
      <point x="646" y="140" type="line"/>
      <point x="429" y="140" type="line"/>
      <point x="429" y="340" type="line"/>
      <point x="646" y="340" type="line"/>
    </contour>
    <contour>
      <point x="1206" y="140" type="line"/>
      <point x="989" y="140" type="line"/>
      <point x="989" y="340" type="line"/>
      <point x="1206" y="340" type="line"/>
    </contour>
    <contour>
      <point x="1363" y="649" type="line"/>
      <point x="1146" y="649" type="line"/>
      <point x="1146" y="848" type="line"/>
      <point x="1363" y="848" type="line"/>
    </contour>
    <contour>
      <point x="429" y="-58" type="line"/>
      <point x="215" y="-58" type="line"/>
      <point x="215" y="140" type="line"/>
      <point x="429" y="140" type="line"/>
    </contour>
    <contour>
      <point x="523" y="649" type="line"/>
      <point x="306" y="649" type="line"/>
      <point x="306" y="848" type="line"/>
      <point x="523" y="848" type="line"/>
    </contour>
    <contour>
      <point x="926" y="140" type="line"/>
      <point x="708" y="140" type="line"/>
      <point x="708" y="340" type="line"/>
      <point x="926" y="340" type="line"/>
    </contour>
    <contour>
      <point x="1206" y="394" type="line"/>
      <point x="989" y="394" type="line"/>
      <point x="989" y="593" type="line"/>
      <point x="1206" y="593" type="line"/>
    </contour>
    <contour>
      <point x="926" y="903" type="line"/>
      <point x="708" y="903" type="line"/>
      <point x="708" y="1100" type="line"/>
      <point x="926" y="1100" type="line"/>
    </contour>
    <contour>
      <point x="646" y="394" type="line"/>
      <point x="429" y="394" type="line"/>
      <point x="429" y="593" type="line"/>
      <point x="646" y="593" type="line"/>
    </contour>
    <contour>
      <point x="926" y="1156" type="line"/>
      <point x="708" y="1156" type="line"/>
      <point x="708" y="1355" type="line"/>
      <point x="926" y="1355" type="line"/>
    </contour>
    <contour>
      <point x="803" y="649" type="line"/>
      <point x="586" y="649" type="line"/>
      <point x="586" y="848" type="line"/>
      <point x="803" y="848" type="line"/>
    </contour>
    <contour>
      <point x="1423" y="-58" type="line"/>
      <point x="1206" y="-58" type="line"/>
      <point x="1206" y="140" type="line"/>
      <point x="1423" y="140" type="line"/>
    </contour>
    <contour>
      <point x="926" y="394" type="line"/>
      <point x="708" y="394" type="line"/>
      <point x="708" y="593" type="line"/>
      <point x="926" y="593" type="line"/>
    </contour>
  </outline>
</glyph>
<glyph name="cs_scratchpad" format="1">
  <advance width="1664"/>
  <unicode hex="F322"/>
  <outline>
    <contour>
      <point x="1263" y="866" type="line"/>
      <point x="1048" y="866" type="line"/>
      <point x="1048" y="1089" type="line"/>
      <point x="1263" y="1089" type="line"/>
    </contour>
    <contour>
      <point x="939" y="532" type="line"/>
      <point x="724" y="532" type="line"/>
      <point x="724" y="754" type="line"/>
      <point x="939" y="754" type="line"/>
    </contour>
    <contour>
      <point x="615" y="532" type="line"/>
      <point x="399" y="532" type="line"/>
      <point x="399" y="754" type="line"/>
      <point x="615" y="754" type="line"/>
    </contour>
    <contour>
      <point x="615" y="197" type="line"/>
      <point x="399" y="197" type="line"/>
      <point x="399" y="421" type="line"/>
      <point x="615" y="421" type="line"/>
    </contour>
    <contour>
      <point x="1264" y="528" type="line"/>
      <point x="1048" y="528" type="line"/>
      <point x="1048" y="751" type="line"/>
      <point x="1264" y="751" type="line"/>
    </contour>
    <contour>
      <point x="1263" y="197" type="line"/>
      <point x="1048" y="197" type="line"/>
      <point x="1048" y="421" type="line"/>
      <point x="1263" y="421" type="line"/>
    </contour>
    <contour>
      <point x="615" y="866" type="line"/>
      <point x="399" y="866" type="line"/>
      <point x="399" y="1089" type="line"/>
      <point x="615" y="1089" type="line"/>
    </contour>
    <contour>
      <point x="939" y="866" type="line"/>
      <point x="724" y="866" type="line"/>
      <point x="724" y="1089" type="line"/>
      <point x="939" y="1089" type="line"/>
    </contour>
    <contour>
      <point x="939" y="197" type="line"/>
      <point x="724" y="197" type="line"/>
      <point x="724" y="421" type="line"/>
      <point x="939" y="421" type="line"/>
    </contour>
  </outline>
</glyph>
<glyph name="talkie" format="1">
  <advance width="1664"/>
  <unicode hex="F323"/>
  <outline>
    <contour>
      <point x="1004" y="865" type="line"/>
      <point x="789" y="865" type="line"/>
      <point x="789" y="1088" type="line"/>
      <point x="1004" y="1088" type="line"/>
    </contour>
    <contour>
      <point x="680" y="-138" type="line"/>
      <point x="464" y="-138" type="line"/>
      <point x="464" y="85" type="line"/>
      <point x="680" y="85" type="line"/>
    </contour>
    <contour>
      <point x="1004" y="531" type="line"/>
      <point x="789" y="531" type="line"/>
      <point x="789" y="753" type="line"/>
      <point x="1004" y="753" type="line"/>
    </contour>
    <contour>
      <point x="680" y="531" type="line"/>
      <point x="464" y="531" type="line"/>
      <point x="464" y="753" type="line"/>
      <point x="680" y="753" type="line"/>
    </contour>
    <contour>
      <point x="680" y="1198" type="line"/>
      <point x="464" y="1198" type="line"/>
      <point x="464" y="1422" type="line"/>
      <point x="680" y="1422" type="line"/>
    </contour>
    <contour>
      <point x="680" y="196" type="line"/>
      <point x="464" y="196" type="line"/>
      <point x="464" y="420" type="line"/>
      <point x="680" y="420" type="line"/>
    </contour>
    <contour>
      <point x="1329" y="527" type="line"/>
      <point x="1113" y="527" type="line"/>
      <point x="1113" y="750" type="line"/>
      <point x="1329" y="750" type="line"/>
    </contour>
    <contour>
      <point x="1004" y="196" type="line"/>
      <point x="789" y="196" type="line"/>
      <point x="789" y="420" type="line"/>
      <point x="1004" y="420" type="line"/>
    </contour>
    <contour>
      <point x="680" y="865" type="line"/>
      <point x="464" y="865" type="line"/>
      <point x="464" y="1088" type="line"/>
      <point x="680" y="1088" type="line"/>
    </contour>
  </outline>
</glyph>
<glyph name=".notdef" format="1">
  <advance width="896"/>
  <outline>
    <contour>
      <point x="224" y="112" type="line"/>
      <point x="224" y="1424" type="line"/>
      <point x="672" y="1424" type="line"/>
      <point x="672" y="112" type="line"/>
    </contour>
    <contour>
      <point x="112" y="0" type="line"/>
      <point x="784" y="0" type="line"/>
      <point x="784" y="1536" type="line"/>
      <point x="112" y="1536" type="line"/>
    </contour>
  </outline>
</glyph>
